<svg width="57" height="30" viewBox="0 0 57 30" fill="none" xmlns="http://www.w3.org/2000/svg">
<path d="M28.5285 29.9999C28.3459 30.0001 28.1643 29.9733 27.9896 29.9204L9.92426 24.7526C9.52702 24.6352 9.17716 24.395 8.92483 24.0665C8.6725 23.738 8.53067 23.3381 8.51967 22.924C-0.225897 18.507 -0.755931 7.02295 0.516152 2.92402C0.642354 2.39107 0.90747 1.90105 1.28453 1.50382C1.66159 1.10659 2.13713 0.816325 2.66279 0.662543C2.95053 0.582613 3.24756 0.54103 3.54618 0.538869C5.51614 0.538869 7.80412 1.98763 9.44723 3.26854C9.74343 3.09156 10.0828 2.99984 10.4278 3.00352C10.5853 3.00417 10.7423 3.02194 10.896 3.05652L28.2546 7.33214L45.1009 2.18198C45.2879 2.13016 45.481 2.10341 45.6751 2.10246C46.0915 2.10243 46.4969 2.23554 46.8323 2.48233L46.9737 2.59717C48.5726 1.36926 50.7899 0 52.698 0C52.9967 0.00216087 53.2937 0.0437447 53.5814 0.123674C54.1074 0.278559 54.5835 0.569024 54.9618 0.965952C55.3401 1.36288 55.6074 1.85231 55.7369 2.38515C57.0178 6.52825 56.4613 18.1272 47.5832 22.4558V22.9593C47.5816 23.3787 47.445 23.7865 47.1936 24.1222C46.9423 24.4579 46.5894 24.7037 46.1874 24.8233L29.0762 29.9116C28.8999 29.9717 28.7147 30.0016 28.5285 29.9999ZM28.5285 27.6501L45.3129 22.6678V20.1148L44.2882 20.4328C44.2054 20.4601 44.1191 20.475 44.032 20.477C43.8311 20.4644 43.6405 20.3836 43.4918 20.2479C43.3432 20.1123 43.2452 19.9299 43.2143 19.731C43.1834 19.5321 43.2213 19.3287 43.3218 19.1543C43.4223 18.9799 43.5794 18.845 43.767 18.772L45.3129 18.2862V7.44698L28.2546 12.8092C28.199 12.8176 28.1424 12.8176 28.0868 12.8092H27.9454L10.8518 8.47171V10.5035L11.6204 10.6979C11.811 10.7828 11.9654 10.9324 12.0562 11.1203C12.147 11.3082 12.1684 11.5222 12.1166 11.7243C12.0647 11.9264 11.943 12.1037 11.7729 12.2247C11.6029 12.3456 11.3955 12.4025 11.1875 12.3851L10.8518 12.2968V14.8851L11.691 15.0971C11.8817 15.1821 12.0361 15.3317 12.1269 15.5196C12.2177 15.7075 12.2391 15.9215 12.1872 16.1236C12.1354 16.3257 12.0136 16.503 11.8436 16.6239C11.6735 16.7449 11.4661 16.8018 11.2582 16.7844L10.8518 16.6784V19.2049L11.8412 19.4611C12.066 19.5177 12.2596 19.6605 12.3801 19.8586C12.4549 19.9916 12.494 20.1418 12.4935 20.2944C12.4931 20.447 12.4531 20.5969 12.3774 20.7294C12.3018 20.862 12.1932 20.9727 12.062 21.0507C11.9309 21.1288 11.7818 21.1716 11.6292 21.1749C11.5558 21.1835 11.4817 21.1835 11.4084 21.1749L10.8518 21.0335V22.606L28.5285 27.6501ZM3.60802 2.87102C3.50228 2.86033 3.39574 2.86033 3.29 2.87102C3.17516 2.87102 2.92781 2.97703 2.7423 3.57773C1.73523 6.84628 2.02675 16.0954 8.51967 20.2208V5.48585C7.28292 4.46995 4.98611 2.87102 3.60802 2.87102ZM47.6539 19.8056C54.2793 15.7332 54.5973 6.38691 53.5726 3.0742C53.3871 2.47349 53.1397 2.40282 53.0249 2.36748C52.9221 2.35732 52.8185 2.35732 52.7157 2.36748C51.373 2.36748 49.0055 3.96642 47.6539 5.106V19.8056ZM28.0603 11.0424L45.3217 5.62719V4.56713L28.8553 9.59362C28.6714 9.64604 28.4812 9.67279 28.2899 9.67312C28.1324 9.67344 27.9753 9.65565 27.8218 9.62012L10.8342 5.44169V6.65193L28.0603 11.0424Z" fill="#4F4F4F"/>
<path d="M28.5285 29.6731C28.3761 29.6743 28.2243 29.6535 28.0779 29.6113L10.0214 24.4434C9.68313 24.3473 9.38539 24.1436 9.17337 23.863C8.96134 23.5824 8.84659 23.2403 8.84652 22.8887V22.7296C0.109788 18.507 -0.42908 7.10246 0.825334 3.03003C0.937632 2.55017 1.17496 2.1086 1.51321 1.75018C1.85146 1.39177 2.27857 1.12928 2.75113 0.989403C3.02196 0.917221 3.30123 0.881574 3.58151 0.883401C5.60448 0.883401 8.06914 2.57951 9.4649 3.68375C9.75067 3.4622 10.1015 3.3411 10.4631 3.33923C10.5924 3.32669 10.7226 3.32669 10.8518 3.33923L28.2988 7.6325L45.2334 2.46466C45.3884 2.41941 45.5489 2.39563 45.7104 2.39399C46.0575 2.39207 46.3956 2.50376 46.6733 2.71201C46.786 2.79529 46.8871 2.89334 46.9737 3.00353C48.3517 1.91696 50.7546 0.30036 52.7334 0.30036C53.0136 0.298533 53.2929 0.33418 53.5638 0.406362C54.0363 0.546235 54.4634 0.808725 54.8017 1.16714C55.1399 1.52556 55.3773 1.96713 55.4895 2.44699C56.7616 6.56359 56.1963 18.0477 47.327 22.2173V22.924C47.3261 23.2719 47.2131 23.6102 47.0046 23.8887C46.7961 24.1672 46.5033 24.3711 46.1698 24.4699L28.9878 29.6024C28.8388 29.6476 28.6842 29.6714 28.5285 29.6731ZM28.5285 28.0035L45.6397 22.924V19.6731L44.191 20.1325C44.1383 20.1409 44.0846 20.1409 44.032 20.1325C43.9161 20.1324 43.8032 20.0957 43.7095 20.0274C43.6159 19.9591 43.5463 19.8629 43.5108 19.7526C43.4889 19.6848 43.4807 19.6132 43.4866 19.5422C43.4925 19.4711 43.5125 19.402 43.5454 19.3387C43.5783 19.2755 43.6234 19.2193 43.6781 19.1736C43.7328 19.1279 43.796 19.0935 43.8641 19.0724L45.5602 18.5335H45.6397V7.04946L28.1574 12.5353H28.0249L10.525 8.03003V10.742L11.532 10.9982C11.67 11.0202 11.794 11.0949 11.8779 11.2065C11.9618 11.3182 11.9991 11.458 11.982 11.5967C11.9648 11.7353 11.8944 11.8618 11.7858 11.9496C11.6771 12.0373 11.5386 12.0795 11.3995 12.0671H11.267L10.525 11.8728V15.1413L11.6115 15.4152C11.7533 15.4339 11.8818 15.5082 11.9687 15.6217C12.0557 15.7352 12.0941 15.8785 12.0753 16.0203C12.0566 16.162 11.9823 16.2905 11.8688 16.3775C11.7553 16.4645 11.6119 16.5028 11.4702 16.4841H11.3377L10.525 16.2721V19.4788L11.7617 19.7968C11.9014 19.8326 12.0218 19.9213 12.0974 20.0441C12.1675 20.1707 12.1865 20.3193 12.1504 20.4593C12.121 20.5753 12.0538 20.6782 11.9594 20.7518C11.865 20.8254 11.7489 20.8654 11.6292 20.8657H11.4967L10.525 20.6183V22.8887L28.5285 28.0035ZM3.60801 2.54417C3.47074 2.54261 3.33394 2.56046 3.20166 2.59718C2.95431 2.65902 2.63628 2.82686 2.42427 3.48057C1.35537 6.96113 1.72639 16.7314 8.84652 20.8039V5.33568C7.57444 4.26678 5.12745 2.54417 3.60801 2.54417ZM47.327 20.3798C54.5885 16.3781 54.9772 6.50176 53.8906 2.97703C53.6786 2.28799 53.3606 2.09364 53.1132 2.04947C52.9811 2.03451 52.8478 2.03451 52.7157 2.04947C51.0638 2.04947 48.2987 4.08127 47.327 4.96466V20.3798ZM28.0691 11.3869L45.6486 5.86572V4.09894L28.7228 9.27561C28.5709 9.32129 28.4132 9.34509 28.2546 9.34628C28.1239 9.34517 27.9936 9.33036 27.8659 9.30211L10.4631 5.01766V6.90812L28.0691 11.3869Z" fill="#4F4F4F"/>
<path d="M28.5285 29.7524C28.3699 29.7513 28.2122 29.7275 28.0603 29.6818L9.99495 24.5139C9.6445 24.4039 9.33705 24.1874 9.11539 23.8945C8.89374 23.6015 8.76888 23.2468 8.7582 22.8797V22.7737C0.0214688 18.5069 -0.517399 7.08465 0.745849 2.99455C0.862755 2.50114 1.10826 2.04748 1.45738 1.67974C1.8065 1.31199 2.2468 1.04327 2.73348 0.900906C3.02121 0.821937 3.31851 0.783297 3.61687 0.786074C5.63983 0.786074 8.09566 2.45568 9.50025 3.56875C9.79054 3.35895 10.1403 3.24751 10.4985 3.25073C10.6336 3.23772 10.7697 3.23772 10.9048 3.25073L28.2811 7.58818L45.2157 2.42918C45.3758 2.37926 45.5428 2.35539 45.7104 2.35851C46.0722 2.35843 46.4247 2.47284 46.7175 2.68536C46.812 2.76091 46.9006 2.84361 46.9825 2.93271C48.3871 1.84614 50.7634 0.282535 52.7334 0.282535C53.3868 0.272956 54.024 0.486591 54.5396 0.888141C55.0552 1.28969 55.4183 1.85512 55.5691 2.49101C56.8412 6.62528 56.2846 18.1359 47.4065 22.3408V22.9945C47.4046 23.3604 47.2851 23.7159 47.0656 24.0087C46.846 24.3014 46.5382 24.5157 46.1875 24.6199L29.0055 29.6729C28.8509 29.7212 28.6904 29.7479 28.5285 29.7524ZM28.5285 27.915L45.5691 22.862V19.779L44.2263 20.203C44.1648 20.2116 44.1024 20.2116 44.0408 20.203C43.8938 20.2 43.7526 20.1454 43.6417 20.0489C43.5308 19.9523 43.4574 19.8199 43.4343 19.6747C43.4111 19.5295 43.4397 19.3808 43.5151 19.2545C43.5904 19.1283 43.7077 19.0325 43.8465 18.9839L45.5691 18.445V7.11115L28.1928 12.5705H28.0956H28.0161L10.6045 8.15355V10.6889L11.5586 10.9362C11.7174 10.9799 11.8532 11.0834 11.9372 11.2251C12.0212 11.3668 12.047 11.5356 12.0091 11.6959C11.9738 11.8305 11.8948 11.9496 11.7844 12.0344C11.6741 12.1191 11.5387 12.1648 11.3995 12.1641H11.2494L10.6045 11.9963V15.0882L11.6292 15.3532C11.7719 15.3957 11.8948 15.4877 11.9759 15.6126C12.057 15.7374 12.0911 15.8871 12.0719 16.0348C12.0528 16.1824 11.9818 16.3185 11.8715 16.4186C11.7613 16.5187 11.619 16.5763 11.4702 16.5811H11.32L10.6045 16.3956V19.4345L11.7794 19.7348C11.86 19.7531 11.936 19.7876 12.0028 19.8362C12.0696 19.8848 12.1258 19.9465 12.1681 20.0175C12.2495 20.1626 12.2716 20.3335 12.2299 20.4945C12.195 20.6277 12.1173 20.7456 12.0088 20.8302C11.9002 20.9148 11.7669 20.9614 11.6292 20.9627H11.4702L10.5868 20.7419V22.8443L28.5285 27.915ZM3.60803 2.62353C3.47657 2.62194 3.34559 2.6398 3.21934 2.67653C3.078 2.67653 2.73348 2.80904 2.5038 3.55992C1.44373 6.99631 1.79708 16.6429 8.7582 20.7154V5.37087C7.52146 4.3108 5.09213 2.62353 3.60803 2.62353ZM47.4065 20.2383C54.4737 16.2189 54.8889 6.48394 53.8111 2.99455C53.5814 2.27017 53.2369 2.173 53.0867 2.11116C52.9635 2.09609 52.8389 2.09609 52.7157 2.11116C51.267 2.11116 48.7493 3.83377 47.4154 4.98218L47.4065 20.2383ZM28.0691 11.2984L45.5691 5.8214V4.23129L28.7847 9.35496C28.6236 9.4001 28.4573 9.42386 28.29 9.42563C28.1377 9.41821 27.9867 9.39451 27.8394 9.35496L10.5692 5.10585V6.81963L28.0691 11.2984Z" fill="#4F4F4F"/>
<path d="M55.2245 2.55283C55.125 2.11095 54.9084 1.70397 54.5976 1.37449C54.2868 1.04501 53.8931 0.805152 53.4578 0.680029C51.3465 0.0881576 48.2634 2.2878 46.8853 3.40087C46.7877 3.22075 46.6521 3.06402 46.4878 2.94152C46.3151 2.81381 46.1146 2.72881 45.9027 2.6935C45.6908 2.65818 45.4736 2.67355 45.2687 2.73833L28.3076 7.90617C28.2913 7.91469 28.2731 7.91914 28.2546 7.91914C28.2362 7.91914 28.218 7.91469 28.2016 7.90617L10.79 3.61289C10.5875 3.56532 10.3768 3.56365 10.1735 3.60797C9.97026 3.6523 9.77946 3.7415 9.61509 3.86907L9.48259 4.00159C8.13983 2.91502 4.96846 0.618192 2.82182 1.2189C2.38693 1.34487 1.99371 1.58501 1.68301 1.91434C1.37232 2.24368 1.15548 2.65021 1.05504 3.0917C-0.208209 7.18179 0.357161 18.4627 9.08506 22.5263V22.8443C9.0849 23.1413 9.18132 23.4303 9.35979 23.6678C9.53826 23.9052 9.78909 24.0782 10.0745 24.1606L28.1398 29.3284C28.2633 29.3639 28.3912 29.3818 28.5197 29.3814C28.651 29.3806 28.7816 29.3628 28.9083 29.3284L46.0903 24.2401C46.3718 24.1524 46.6183 23.9778 46.7945 23.7413C46.9707 23.5048 47.0674 23.2187 47.0709 22.9238V22.0404C55.9401 18.0563 56.5231 6.70476 55.2245 2.55283ZM9.09389 21.2542C1.50557 17.2789 1.0462 7.16412 2.19461 3.44505C2.44196 2.64116 2.84832 2.43799 3.13984 2.34965C4.76528 1.90796 7.81298 4.11643 9.09389 5.22067V21.2542ZM45.8959 18.8337C45.8561 18.8142 45.8122 18.8041 45.7678 18.8041C45.7235 18.8041 45.6796 18.8142 45.6398 18.8337L43.9525 19.3637C43.915 19.3748 43.8801 19.3933 43.8499 19.4181C43.8198 19.4429 43.7948 19.4735 43.7767 19.5081C43.7586 19.5427 43.7476 19.5806 43.7444 19.6195C43.7412 19.6585 43.7459 19.6977 43.7581 19.7348C43.7751 19.7947 43.8109 19.8477 43.8602 19.8858C43.9095 19.924 43.9697 19.9454 44.032 19.9468H44.1292L45.8164 19.4167C45.8426 19.4231 45.8698 19.4231 45.8959 19.4167V23.0652C45.8972 23.1053 45.8848 23.1446 45.8607 23.1768C45.8366 23.2089 45.8023 23.2318 45.7634 23.2418L28.5815 28.339H28.4755L10.4101 23.1623C10.3704 23.1526 10.335 23.13 10.3094 23.098C10.2839 23.0661 10.2696 23.0266 10.2688 22.9856V20.3355L11.5497 20.6535C11.5757 20.6611 11.6033 20.6611 11.6292 20.6535C11.6946 20.6551 11.7585 20.6339 11.8101 20.5937C11.8616 20.5534 11.8976 20.4965 11.9119 20.4326C11.9225 20.3949 11.9254 20.3555 11.9204 20.3166C11.9154 20.2778 11.9026 20.2403 11.8828 20.2065C11.8631 20.1727 11.8367 20.1432 11.8052 20.1199C11.7738 20.0965 11.738 20.0797 11.6999 20.0705L10.2688 19.7083V15.998L11.3995 16.2807H11.4702C11.5375 16.2806 11.6028 16.2579 11.6557 16.2163C11.7086 16.1746 11.7459 16.1164 11.7617 16.051C11.7804 15.9761 11.7686 15.8967 11.7289 15.8305C11.6891 15.7642 11.6247 15.7164 11.5497 15.6977L10.2688 15.3708V11.5987L11.3289 11.8638C11.3518 11.8712 11.3766 11.8712 11.3995 11.8638C11.4686 11.8591 11.5339 11.8308 11.5844 11.7836C11.635 11.7364 11.6677 11.6732 11.677 11.6047C11.6864 11.5361 11.6718 11.4665 11.6357 11.4074C11.5996 11.3484 11.5443 11.3037 11.479 11.2807L10.2688 10.9715V7.756L28.0161 12.279H28.0956L45.8959 6.70476V18.8337ZM45.8959 6.05105L28.078 11.6429L10.2688 7.09345V4.93798C10.2704 4.90869 10.2784 4.8801 10.2921 4.85418C10.3058 4.82825 10.325 4.80561 10.3483 4.7878C10.3855 4.77502 10.4259 4.77502 10.4632 4.7878H10.5073L27.9631 9.08108C28.1994 9.1518 28.4512 9.1518 28.6875 9.08108L45.6574 3.91324C45.6829 3.89851 45.7119 3.89076 45.7414 3.89076C45.7708 3.89076 45.7998 3.89851 45.8253 3.91324C45.847 3.93189 45.8645 3.95491 45.8766 3.98079C45.8888 4.00667 45.8954 4.03482 45.8959 4.06342V6.05105ZM47.0797 20.786V4.80548C48.1839 3.83375 51.4966 1.34258 53.1839 1.81078C53.4666 1.89912 53.873 2.09346 54.1291 2.90618C55.2776 6.64292 54.8094 16.8638 47.0797 20.786Z" fill="#4F4F4F"/>
<path d="M45.8959 4.05473V6.06003L28.0779 11.6519L10.2688 7.10242V4.93812C10.2704 4.90883 10.2783 4.88024 10.2921 4.85432C10.3058 4.82839 10.325 4.80575 10.3483 4.78795C10.3855 4.77516 10.4259 4.77516 10.4631 4.78795H10.5073L27.9631 9.08122C28.1994 9.15194 28.4512 9.15194 28.6875 9.08122L45.6574 3.91338C45.6829 3.89865 45.7119 3.8909 45.7413 3.8909C45.7708 3.8909 45.7997 3.89865 45.8252 3.91338C45.8459 3.93103 45.8627 3.95264 45.8749 3.97691C45.887 4.00119 45.8942 4.02764 45.8959 4.05473Z" fill="#4F4F4F"/>
<path d="M25.1893 15.901C25.1159 15.9096 25.0418 15.9096 24.9684 15.901L23.2546 15.4593C23.0298 15.4027 22.8363 15.2599 22.7158 15.0618C22.6409 14.9288 22.6019 14.7787 22.6023 14.6261C22.6028 14.4734 22.6428 14.3236 22.7184 14.191C22.794 14.0584 22.9027 13.9477 23.0338 13.8697C23.165 13.7916 23.3141 13.7488 23.4666 13.7455H23.6875L25.4013 14.1872C25.6228 14.246 25.8129 14.3885 25.9313 14.5848C25.9926 14.6824 26.0329 14.7917 26.0496 14.9058C26.0664 15.0199 26.0592 15.1362 26.0285 15.2473C25.9786 15.4326 25.8697 15.5967 25.7183 15.7146C25.5669 15.8326 25.3812 15.898 25.1893 15.901Z" fill="#4F4F4F"/>
<path d="M25.1892 15.5389H25.0567L23.2899 15.0972C23.1502 15.0614 23.0299 14.9727 22.9543 14.8499C22.9086 14.7673 22.885 14.6744 22.8858 14.58C22.8866 14.4857 22.9118 14.3931 22.9589 14.3114C23.006 14.2296 23.0734 14.1614 23.1547 14.1134C23.2359 14.0653 23.3281 14.0391 23.4224 14.0372H23.555L25.3217 14.4789C25.3903 14.4954 25.4547 14.5259 25.511 14.5684C25.5672 14.611 25.6141 14.6647 25.6486 14.7262C25.6866 14.7876 25.7117 14.856 25.7224 14.9274C25.733 14.9988 25.7289 15.0716 25.7104 15.1414C25.6793 15.2558 25.6114 15.3567 25.5172 15.4285C25.423 15.5004 25.3077 15.5392 25.1892 15.5389Z" fill="#4F4F4F"/>
<path d="M25.1892 15.6537C25.1366 15.6624 25.0829 15.6624 25.0302 15.6537L23.3165 15.212C23.2359 15.1937 23.1599 15.1592 23.0931 15.1106C23.0262 15.062 22.97 15.0003 22.9278 14.9293C22.8455 14.7845 22.8233 14.6132 22.8659 14.4523C22.9008 14.3191 22.9785 14.2012 23.0871 14.1165C23.1956 14.0319 23.329 13.9854 23.4666 13.9841H23.6256L25.3394 14.4258C25.4193 14.4457 25.4943 14.4819 25.5596 14.532C25.625 14.5822 25.6793 14.6452 25.7193 14.7173C25.7631 14.786 25.7921 14.8632 25.8043 14.9439C25.8165 15.0245 25.8116 15.1068 25.7899 15.1855C25.7551 15.3186 25.6773 15.4366 25.5688 15.5212C25.4602 15.6058 25.3269 15.6524 25.1892 15.6537Z" fill="#4F4F4F"/>
<path d="M23.3606 14.8764L25.0744 15.3181H25.1892C25.2542 15.318 25.3173 15.2963 25.3686 15.2563C25.4198 15.2163 25.4562 15.1603 25.4719 15.0972C25.4825 15.0595 25.4854 15.02 25.4804 14.9812C25.4754 14.9423 25.4626 14.9049 25.4429 14.8711C25.4231 14.8373 25.3967 14.8078 25.3652 14.7844C25.3338 14.761 25.298 14.7442 25.2599 14.735L23.5373 14.3022C23.5001 14.2916 23.4612 14.2888 23.423 14.2939C23.3847 14.299 23.3479 14.3119 23.3147 14.3317C23.2816 14.3516 23.2529 14.378 23.2305 14.4094C23.208 14.4408 23.1921 14.4764 23.1839 14.5142C23.1714 14.5495 23.1661 14.587 23.1682 14.6245C23.1704 14.6619 23.18 14.6986 23.1964 14.7323C23.2128 14.766 23.2358 14.7961 23.264 14.8208C23.2922 14.8456 23.325 14.8644 23.3606 14.8764Z" fill="#4F4F4F"/>
<path d="M43.8112 11.7137C43.6103 11.7011 43.4197 11.6203 43.271 11.4847C43.1223 11.349 43.0244 11.1667 42.9935 10.9678C42.9626 10.7689 43.0005 10.5654 43.101 10.391C43.2015 10.2166 43.3586 10.0818 43.5461 10.0088L45.2422 9.47876C45.3272 9.46631 45.4135 9.46631 45.4984 9.47876C45.6911 9.4687 45.8817 9.52197 46.0412 9.63044C46.2007 9.73891 46.3204 9.89662 46.3818 10.0795C46.4485 10.3009 46.4258 10.5396 46.3184 10.7444C46.211 10.9492 46.0277 11.1038 45.8076 11.1749L44.1203 11.7049C44.0184 11.7242 43.914 11.7272 43.8112 11.7137Z" fill="#4F4F4F"/>
<path d="M43.8111 11.3868C43.6956 11.3855 43.5833 11.3481 43.4899 11.2801C43.3965 11.212 43.3266 11.1165 43.2899 11.0069C43.2682 10.9385 43.2604 10.8664 43.2669 10.795C43.2734 10.7235 43.2942 10.654 43.3279 10.5906C43.3616 10.5273 43.4077 10.4713 43.4634 10.426C43.5191 10.3807 43.5832 10.3469 43.6521 10.3267L45.3394 9.78788H45.4984C45.6146 9.78652 45.7282 9.82277 45.8221 9.89123C45.916 9.95968 45.9853 10.0567 46.0196 10.1677C46.0614 10.3048 46.0478 10.4528 45.9818 10.5799C45.9157 10.7071 45.8024 10.8033 45.6663 10.8479L43.9702 11.378L43.8111 11.3868Z" fill="#4F4F4F"/>
<path d="M43.8112 11.4665C43.6649 11.4616 43.5249 11.4057 43.4155 11.3085C43.3061 11.2112 43.2341 11.0788 43.2121 10.934C43.1901 10.7893 43.2194 10.6415 43.2949 10.5161C43.3704 10.3907 43.4874 10.2957 43.6257 10.2475L45.3129 9.71743C45.3743 9.70633 45.4371 9.70633 45.4984 9.71743C45.6454 9.72043 45.7867 9.77498 45.8976 9.87155C46.0084 9.96812 46.0818 10.1006 46.105 10.2458C46.1281 10.3909 46.0995 10.5397 46.0242 10.6659C45.9489 10.7922 45.8316 10.8879 45.6928 10.9365L43.9967 11.4754L43.8112 11.4665Z" fill="#4F4F4F"/>
<path d="M43.8111 11.1218H43.8995L45.5956 10.5918C45.6322 10.5798 45.6662 10.5606 45.6954 10.5355C45.7246 10.5103 45.7486 10.4795 45.7658 10.445C45.7831 10.4105 45.7933 10.3729 45.7959 10.3344C45.7986 10.2959 45.7935 10.2573 45.7811 10.2207C45.7586 10.1471 45.7079 10.0853 45.6401 10.0489C45.5722 10.0125 45.4927 10.0044 45.4189 10.0264L43.7228 10.5564C43.6571 10.5798 43.6016 10.6253 43.5658 10.6852C43.53 10.745 43.5161 10.8154 43.5266 10.8844C43.537 10.9533 43.5711 11.0165 43.623 11.063C43.675 11.1095 43.7415 11.1366 43.8111 11.1395V11.1218Z" fill="#4F4F4F"/>
<path d="M30.2688 15.9628C30.0721 15.9447 29.8872 15.8612 29.7436 15.7256C29.6 15.5901 29.5059 15.4103 29.4764 15.2151C29.4469 15.0198 29.4837 14.8203 29.5809 14.6484C29.6781 14.4765 29.8301 14.3421 30.0126 14.2667L31.6999 13.7278C31.7878 13.7155 31.877 13.7155 31.9649 13.7278C32.1622 13.7444 32.3482 13.8267 32.493 13.9616C32.6379 14.0965 32.7333 14.2762 32.7638 14.4717C32.7944 14.6673 32.7584 14.8675 32.6616 15.0402C32.5647 15.2128 32.4127 15.348 32.2299 15.4239L30.5338 15.9628C30.446 15.9761 30.3566 15.9761 30.2688 15.9628Z" fill="#4F4F4F"/>
<path d="M30.2688 15.6359C30.1537 15.6368 30.0415 15.6002 29.9491 15.5317C29.8566 15.4631 29.789 15.3664 29.7564 15.256C29.7146 15.119 29.7282 14.971 29.7943 14.8438C29.8603 14.7167 29.9736 14.6205 30.1098 14.5758L31.8059 14.0458C31.8586 14.0374 31.9122 14.0374 31.9649 14.0458C32.098 14.0398 32.2286 14.0833 32.3315 14.168C32.4344 14.2527 32.5023 14.3724 32.5221 14.5042C32.5418 14.636 32.5121 14.7704 32.4385 14.8815C32.365 14.9926 32.2529 15.0726 32.1239 15.1059L30.4366 15.6359C30.3811 15.6451 30.3244 15.6451 30.2688 15.6359Z" fill="#4F4F4F"/>
<path d="M30.2688 15.7154C30.1368 15.7158 30.0082 15.674 29.9017 15.5961C29.7953 15.5183 29.7165 15.4084 29.6769 15.2825C29.6269 15.1244 29.6416 14.9529 29.7178 14.8055C29.7939 14.6582 29.9253 14.547 30.0833 14.4963L31.7794 13.9663C31.8409 13.9577 31.9033 13.9577 31.9649 13.9663C32.0968 13.9659 32.2254 14.0076 32.3319 14.0855C32.4384 14.1634 32.5172 14.2733 32.5567 14.3991C32.6067 14.5573 32.592 14.7288 32.5159 14.8761C32.4397 15.0235 32.3083 15.1347 32.1504 15.1854L30.4631 15.7154H30.2688Z" fill="#4F4F4F"/>
<path d="M37.0443 13.8427C36.8435 13.8301 36.6529 13.7493 36.5042 13.6136C36.3555 13.478 36.2576 13.2956 36.2267 13.0967C36.1958 12.8978 36.2337 12.6943 36.3342 12.5199C36.4347 12.3456 36.5917 12.2107 36.7793 12.1377L38.4754 11.6077C38.5582 11.5804 38.6445 11.5655 38.7316 11.5635C38.9325 11.5761 39.1231 11.657 39.2717 11.7926C39.4204 11.9283 39.5183 12.1106 39.5493 12.3095C39.5802 12.5084 39.5422 12.7119 39.4417 12.8863C39.3412 13.0607 39.1842 13.1955 38.9966 13.2685L37.3005 13.7985C37.2178 13.8258 37.1314 13.8407 37.0443 13.8427Z" fill="#4F4F4F"/>
<path d="M37.0444 13.5069C36.9281 13.5083 36.8146 13.4721 36.7207 13.4036C36.6267 13.3351 36.5575 13.2382 36.5232 13.1271C36.4814 12.99 36.495 12.842 36.561 12.7149C36.6271 12.5877 36.7404 12.4915 36.8765 12.4469L38.5726 11.9168C38.6253 11.9084 38.679 11.9084 38.7316 11.9168C38.8475 11.9169 38.9604 11.9537 39.0541 12.0219C39.1477 12.0902 39.2173 12.1864 39.2528 12.2967C39.2747 12.3646 39.283 12.4361 39.277 12.5071C39.2711 12.5782 39.2511 12.6473 39.2182 12.7106C39.1853 12.7739 39.1402 12.83 39.0855 12.8757C39.0308 12.9214 38.9676 12.9558 38.8995 12.9769L37.2034 13.5069C37.1507 13.5154 37.097 13.5154 37.0444 13.5069Z" fill="#4F4F4F"/>
<path d="M37.0443 13.5953C36.9105 13.5942 36.7803 13.551 36.6725 13.4717C36.5646 13.3924 36.4845 13.281 36.4436 13.1536C36.419 13.0758 36.41 12.994 36.4171 12.9128C36.4242 12.8316 36.4474 12.7526 36.4851 12.6803C36.5229 12.6081 36.5746 12.544 36.6372 12.4918C36.6998 12.4396 36.7721 12.4003 36.85 12.3762L38.5461 11.8373C38.6077 11.8287 38.6701 11.8287 38.7316 11.8373C38.8655 11.8383 38.9956 11.8816 39.1035 11.9609C39.2113 12.0402 39.2914 12.1515 39.3323 12.279C39.3569 12.3567 39.366 12.4385 39.3588 12.5198C39.3517 12.601 39.3286 12.68 39.2908 12.7522C39.2531 12.8245 39.2014 12.8885 39.1388 12.9407C39.0762 12.9929 39.0038 13.0322 38.926 13.0564L37.2299 13.5864C37.1693 13.602 37.1061 13.605 37.0443 13.5953Z" fill="#4F4F4F"/>
<path d="M37.0443 13.2596H37.1327L38.82 12.7296C38.8632 12.7237 38.9047 12.7084 38.9414 12.6848C38.9782 12.6613 39.0094 12.63 39.0328 12.5931C39.0562 12.5562 39.0713 12.5147 39.0771 12.4714C39.0828 12.4281 39.079 12.3841 39.066 12.3424C39.053 12.3007 39.031 12.2624 39.0016 12.2301C38.9723 12.1977 38.9362 12.1722 38.896 12.1552C38.8557 12.1383 38.8123 12.1303 38.7686 12.1318C38.725 12.1334 38.6822 12.1444 38.6433 12.1642L36.956 12.6943C36.9185 12.7053 36.8837 12.7238 36.8535 12.7486C36.8233 12.7734 36.7984 12.804 36.7802 12.8386C36.7621 12.8732 36.7511 12.9111 36.7479 12.9501C36.7447 12.989 36.7494 13.0282 36.7617 13.0653C36.7809 13.1242 36.8191 13.1751 36.8701 13.2102C36.9212 13.2454 36.9824 13.2627 37.0443 13.2596Z" fill="#4F4F4F"/>
<path d="M18.2723 14.1519H18.0603L16.2935 13.7102C16.0715 13.65 15.8818 13.5055 15.7647 13.3075C15.6476 13.1096 15.6123 12.8737 15.6663 12.6502C15.7266 12.4282 15.871 12.2385 16.069 12.1213C16.267 12.0042 16.5028 11.9689 16.7264 12.023L18.4931 12.4558C18.7162 12.5167 18.9065 12.6626 19.0232 12.8622C19.1389 13.0593 19.1738 13.2936 19.1204 13.5159C19.0668 13.6994 18.9552 13.8606 18.8023 13.9752C18.6494 14.0899 18.4634 14.1519 18.2723 14.1519Z" fill="#4F4F4F"/>
<path d="M18.2723 13.8161C18.2286 13.8247 18.1836 13.8247 18.1398 13.8161L16.426 13.3832C16.3563 13.3668 16.2906 13.3365 16.2329 13.294C16.1752 13.2514 16.1267 13.1977 16.0904 13.1359C16.0172 13.0105 15.9951 12.8619 16.0285 12.7207C16.0597 12.604 16.1286 12.5009 16.2244 12.4274C16.3203 12.3539 16.4378 12.3141 16.5586 12.3143H16.6911L18.4137 12.756C18.551 12.7922 18.6684 12.8811 18.7405 13.0034C18.7788 13.063 18.8041 13.1299 18.8148 13.2C18.8255 13.27 18.8212 13.3415 18.8024 13.4097C18.7726 13.5272 18.7041 13.6312 18.6079 13.7049C18.5117 13.7787 18.3935 13.8178 18.2723 13.8161Z" fill="#4F4F4F"/>
<path d="M18.2723 13.9045H18.1221L16.3554 13.4628C16.1965 13.4192 16.0608 13.3156 15.9767 13.1739C15.8927 13.0322 15.8669 12.8634 15.9048 12.7031C15.9414 12.5692 16.0208 12.451 16.1309 12.3665C16.2409 12.282 16.3756 12.2357 16.5144 12.2349C16.564 12.2257 16.6149 12.2257 16.6645 12.2349L18.4313 12.6677C18.5815 12.704 18.713 12.7945 18.8006 12.9218C18.8882 13.049 18.9257 13.2041 18.906 13.3574C18.8863 13.5106 18.8108 13.6512 18.6938 13.7521C18.5769 13.8531 18.4268 13.9073 18.2723 13.9045Z" fill="#4F4F4F"/>
<path d="M16.4879 13.1271L18.2017 13.5599H18.2723C18.3384 13.5603 18.4029 13.5389 18.4556 13.499C18.5083 13.459 18.5463 13.4028 18.5638 13.3391C18.5825 13.2641 18.5707 13.1848 18.531 13.1185C18.4912 13.0522 18.4268 13.0045 18.3518 12.9857L16.6292 12.544C16.5915 12.5334 16.552 12.5305 16.5132 12.5355C16.4743 12.5405 16.4369 12.5533 16.4031 12.5731C16.3693 12.5929 16.3398 12.6193 16.3164 12.6507C16.293 12.6821 16.2762 12.718 16.267 12.756C16.2482 12.8345 16.2607 12.9172 16.302 12.9865C16.3432 13.0558 16.4099 13.1062 16.4879 13.1271Z" fill="#4F4F4F"/>
<path d="M18.3518 18.5512C18.2785 18.5604 18.2043 18.5604 18.131 18.5512L16.4172 18.1095C16.1924 18.0528 15.9988 17.91 15.8784 17.7119C15.7963 17.5632 15.7588 17.394 15.7704 17.2246C15.782 17.0551 15.8422 16.8926 15.9439 16.7565C16.0455 16.6204 16.1842 16.5165 16.3433 16.4572C16.5025 16.3979 16.6754 16.3857 16.8412 16.4222L18.608 16.8639C18.7189 16.8902 18.8232 16.9391 18.9144 17.0075C19.0056 17.0759 19.0817 17.1623 19.1381 17.2614C19.1991 17.3575 19.2394 17.4653 19.2561 17.5779C19.2728 17.6905 19.2657 17.8054 19.2352 17.9151C19.1802 18.1045 19.0633 18.2701 18.9032 18.3854C18.7431 18.5006 18.549 18.559 18.3518 18.5512Z" fill="#4F4F4F"/>
<path d="M18.3518 18.1889H18.2193L16.4525 17.7473C16.3128 17.7114 16.1924 17.6227 16.1168 17.4999C16.0798 17.4381 16.0559 17.3693 16.0468 17.2979C16.0377 17.2264 16.0435 17.1538 16.0638 17.0847C16.0932 16.9687 16.1604 16.8658 16.2548 16.7922C16.3492 16.7187 16.4653 16.6786 16.585 16.6783H16.7175L18.4401 17.12C18.5087 17.1366 18.5731 17.167 18.6294 17.2096C18.6856 17.2522 18.7325 17.3059 18.767 17.3674C18.8053 17.427 18.8306 17.494 18.8413 17.564C18.8519 17.634 18.8477 17.7055 18.8288 17.7738C18.8032 17.8844 18.7433 17.9841 18.6576 18.0587C18.5719 18.1332 18.4649 18.1788 18.3518 18.1889Z" fill="#4F4F4F"/>
<path d="M18.3518 18.3038H18.1928L16.479 17.8621C16.3368 17.8199 16.2142 17.7287 16.1328 17.6047C16.0515 17.4806 16.0168 17.3318 16.0348 17.1846C16.0528 17.0374 16.1224 16.9013 16.2312 16.8005C16.34 16.6997 16.4811 16.6408 16.6292 16.6342H16.7794L18.5462 17.0759C18.6255 17.0943 18.7002 17.1289 18.7656 17.1776C18.831 17.2262 18.8856 17.2878 18.926 17.3585C18.9701 17.4288 18.9992 17.5075 19.0113 17.5896C19.0235 17.6718 19.0185 17.7555 18.9967 17.8356C18.9601 17.9762 18.8758 18.0998 18.7582 18.1852C18.6406 18.2706 18.4969 18.3125 18.3518 18.3038Z" fill="#4F4F4F"/>
<path d="M18.2723 17.9681H18.3518C18.4176 17.9661 18.4809 17.9425 18.5319 17.901C18.583 17.8595 18.619 17.8024 18.6345 17.7384C18.645 17.7013 18.6478 17.6624 18.6428 17.6241C18.6377 17.5858 18.6248 17.549 18.6049 17.5159C18.5851 17.4828 18.5586 17.4541 18.5272 17.4316C18.4959 17.4091 18.4602 17.3932 18.4225 17.3851L16.6557 16.9434C16.5807 16.9247 16.5014 16.9365 16.4351 16.9762C16.3689 17.016 16.3211 17.0804 16.3023 17.1554C16.2917 17.1931 16.2889 17.2326 16.2939 17.2714C16.2988 17.3103 16.3116 17.3477 16.3314 17.3815C16.3512 17.4153 16.3776 17.4448 16.409 17.4682C16.4405 17.4915 16.4763 17.5084 16.5144 17.5176L18.2723 17.9681Z" fill="#4F4F4F"/>
<path d="M25.1892 20.3002C25.1159 20.3089 25.0418 20.3089 24.9684 20.3002L23.2546 19.8674C23.0203 19.8392 22.8068 19.7192 22.661 19.5337C22.5152 19.3481 22.4491 19.1123 22.4772 18.878C22.5053 18.6437 22.6254 18.4302 22.8109 18.2844C22.9965 18.1386 23.2323 18.0725 23.4666 18.1006H23.6786L25.4454 18.5423C25.6703 18.5989 25.8638 18.7417 25.9843 18.9398C26.0994 19.1406 26.1311 19.3785 26.0726 19.6024C26.0295 19.8033 25.9177 19.9829 25.7565 20.1102C25.5953 20.2376 25.3947 20.3048 25.1892 20.3002Z" fill="#4F4F4F"/>
<path d="M25.1893 19.9557H25.0568L23.29 19.5228C23.1521 19.5008 23.0281 19.4261 22.9441 19.3145C22.8602 19.2028 22.8229 19.063 22.8401 18.9244C22.8572 18.7857 22.9276 18.6592 23.0362 18.5714C23.1449 18.4837 23.2834 18.4415 23.4225 18.4539H23.555L25.2776 18.8956C25.4173 18.9314 25.5377 19.0201 25.6133 19.1429C25.6834 19.2695 25.7024 19.4181 25.6663 19.5581C25.6375 19.6655 25.5762 19.7613 25.4908 19.8325C25.4054 19.9037 25.3001 19.9467 25.1893 19.9557Z" fill="#4F4F4F"/>
<path d="M25.1892 20.053C25.1366 20.0617 25.0829 20.0617 25.0302 20.053L23.3164 19.6201C23.1671 19.5839 23.0363 19.4941 22.9487 19.3678C22.8612 19.2415 22.8231 19.0875 22.8416 18.935C22.8601 18.7824 22.934 18.642 23.0492 18.5403C23.1644 18.4386 23.313 18.3828 23.4666 18.3834H23.6168L25.3836 18.8251C25.5258 18.8672 25.6484 18.9584 25.7298 19.0824C25.8111 19.2065 25.8459 19.3553 25.8279 19.5025C25.8099 19.6498 25.7403 19.7858 25.6314 19.8866C25.5226 19.9874 25.3816 20.0463 25.2334 20.053H25.1892Z" fill="#4F4F4F"/>
<path d="M25.1892 19.7173C25.2542 19.7172 25.3173 19.6955 25.3686 19.6555C25.4198 19.6155 25.4562 19.5595 25.4719 19.4964C25.4825 19.4587 25.4854 19.4192 25.4804 19.3804C25.4754 19.3415 25.4626 19.3041 25.4429 19.2703C25.4231 19.2365 25.3967 19.207 25.3652 19.1836C25.3338 19.1602 25.298 19.1435 25.2599 19.1342L23.5461 18.7014C23.5084 18.6908 23.469 18.6879 23.4301 18.6929C23.3912 18.6979 23.3538 18.7106 23.32 18.7304C23.2862 18.7502 23.2567 18.7766 23.2333 18.8081C23.21 18.8395 23.1932 18.8753 23.1839 18.9134C23.1734 18.9505 23.1706 18.9894 23.1757 19.0277C23.1808 19.066 23.1936 19.1028 23.2135 19.1359C23.2334 19.169 23.2598 19.1977 23.2912 19.2202C23.3226 19.2427 23.3582 19.2585 23.396 19.2667L25.1892 19.7173Z" fill="#4F4F4F"/>
<path d="M43.8818 16.113C43.697 16.111 43.5175 16.0512 43.3686 15.9418C43.2196 15.8325 43.1087 15.6792 43.0514 15.5035C42.9843 15.2832 43.0059 15.0455 43.1115 14.8409C43.2171 14.6363 43.3984 14.481 43.6168 14.4081L45.3129 13.878C45.4007 13.8647 45.4901 13.8647 45.5779 13.878C45.7627 13.88 45.9422 13.9399 46.0911 14.0493C46.2401 14.1586 46.351 14.3119 46.4083 14.4876C46.4724 14.7078 46.4483 14.9443 46.3411 15.1471C46.2339 15.3499 46.0521 15.503 45.8341 15.5741L44.1468 16.1042C44.0594 16.1204 43.9701 16.1234 43.8818 16.113Z" fill="#4F4F4F"/>
<path d="M43.8818 15.7861C43.7671 15.7856 43.6555 15.7485 43.5633 15.6801C43.4712 15.6118 43.4032 15.5159 43.3694 15.4063C43.3462 15.3385 43.3371 15.2667 43.3424 15.1952C43.3478 15.1238 43.3676 15.0542 43.4006 14.9906C43.4336 14.927 43.4792 14.8708 43.5346 14.8253C43.59 14.7798 43.654 14.7461 43.7228 14.726L45.41 14.196C45.4657 14.1875 45.5222 14.1875 45.5779 14.196C45.6929 14.1951 45.8052 14.2317 45.8976 14.3002C45.99 14.3688 46.0576 14.4655 46.0902 14.5759C46.132 14.7129 46.1184 14.8609 46.0524 14.9881C45.9863 15.1152 45.8731 15.2114 45.7369 15.2561L44.0496 15.7861H43.8818Z" fill="#4F4F4F"/>
<path d="M43.8818 15.8656C43.7499 15.866 43.6213 15.8243 43.5148 15.7464C43.4083 15.6685 43.3295 15.5586 43.2899 15.4328C43.2673 15.3521 43.2611 15.2678 43.2716 15.1847C43.2822 15.1016 43.3092 15.0215 43.3512 14.949C43.3932 14.8766 43.4493 14.8133 43.5161 14.7628C43.583 14.7124 43.6593 14.6759 43.7405 14.6554L45.4277 14.1253C45.4923 14.1176 45.5575 14.1176 45.6221 14.1253C45.7551 14.1255 45.8846 14.1686 45.9912 14.2481C46.0978 14.3277 46.1759 14.4395 46.2139 14.567C46.2639 14.7252 46.2492 14.8967 46.1731 15.044C46.0969 15.1914 45.9655 15.3026 45.8076 15.3532L44.1115 15.8833C44.0345 15.8907 43.9568 15.8847 43.8818 15.8656Z" fill="#4F4F4F"/>
<path d="M45.5072 14.4257L43.8111 14.9557C43.7454 14.9791 43.6899 15.0246 43.6541 15.0845C43.6184 15.1443 43.6045 15.2147 43.6149 15.2837C43.6254 15.3526 43.6595 15.4157 43.7114 15.4623C43.7633 15.5088 43.8298 15.5359 43.8995 15.5388H43.9878L45.6839 15.0087C45.7582 14.9843 45.8201 14.932 45.8564 14.8627C45.8927 14.7934 45.9006 14.7127 45.8783 14.6377C45.868 14.5993 45.8503 14.5633 45.826 14.5318C45.8018 14.5003 45.7715 14.4739 45.737 14.4542C45.7025 14.4345 45.6644 14.4218 45.625 14.4169C45.5855 14.412 45.5455 14.415 45.5072 14.4257Z" fill="#4F4F4F"/>
<path d="M30.3483 20.3622C30.151 20.3456 29.965 20.2633 29.8201 20.1284C29.6752 19.9935 29.5799 19.8138 29.5493 19.6183C29.5188 19.4227 29.5548 19.2225 29.6516 19.0498C29.7484 18.8771 29.9004 18.742 30.0833 18.6661L31.7794 18.1272C31.8643 18.1147 31.9506 18.1147 32.0355 18.1272C32.2203 18.1292 32.3998 18.1891 32.5488 18.2984C32.6977 18.4078 32.8087 18.5611 32.8659 18.7367C32.933 18.957 32.9115 19.1948 32.8059 19.3994C32.7003 19.604 32.519 19.7593 32.3006 19.8321L30.6045 20.3622C30.5195 20.3746 30.4332 20.3746 30.3483 20.3622Z" fill="#4F4F4F"/>
<path d="M30.3483 20.0353C30.2141 20.0442 30.0815 20.0026 29.9765 19.9187C29.8714 19.8348 29.8015 19.7147 29.7805 19.5819C29.7595 19.4491 29.7888 19.3133 29.8628 19.201C29.9368 19.0888 30.0501 19.0083 30.1804 18.9752L31.8765 18.4452H32.0355C32.1697 18.4363 32.3023 18.4779 32.4074 18.5618C32.5124 18.6457 32.5823 18.7659 32.6033 18.8986C32.6243 19.0314 32.595 19.1673 32.521 19.2795C32.447 19.3917 32.3337 19.4723 32.2034 19.5053L30.5073 20.0353C30.4546 20.0437 30.4009 20.0437 30.3483 20.0353Z" fill="#4F4F4F"/>
<path d="M30.3483 20.1147C30.2149 20.117 30.0843 20.0761 29.976 19.9981C29.8677 19.9201 29.7876 19.8092 29.7476 19.6819C29.7 19.5237 29.7158 19.3532 29.7916 19.2065C29.8674 19.0597 29.9974 18.9483 30.1539 18.8956L31.85 18.3656H32.0356C32.1909 18.354 32.3449 18.4015 32.4668 18.4986C32.5887 18.5957 32.6694 18.7352 32.6928 18.8892C32.7163 19.0433 32.6807 19.2005 32.5932 19.3294C32.5058 19.4583 32.3729 19.5495 32.2211 19.5847L30.5338 20.1147H30.3483Z" fill="#4F4F4F"/>
<path d="M37.115 18.242C36.9141 18.2294 36.7236 18.1486 36.5749 18.0129C36.4262 17.8773 36.3283 17.6949 36.2974 17.496C36.2665 17.2971 36.3044 17.0936 36.4049 16.9193C36.5054 16.7449 36.6624 16.61 36.85 16.537L38.5461 16.007C38.6289 15.9797 38.7152 15.9648 38.8023 15.9628C38.9871 15.9648 39.1666 16.0247 39.3155 16.134C39.4645 16.2434 39.5754 16.3967 39.6327 16.5724C39.6998 16.7926 39.6782 17.0304 39.5726 17.235C39.467 17.4396 39.2857 17.5949 39.0673 17.6678L37.3712 18.1978C37.2885 18.2251 37.2021 18.24 37.115 18.242Z" fill="#4F4F4F"/>
<path d="M37.115 17.9062C36.9988 17.9076 36.8852 17.8713 36.7913 17.8029C36.6974 17.7344 36.6281 17.6374 36.5938 17.5264C36.552 17.3893 36.5656 17.2413 36.6317 17.1141C36.6977 16.987 36.811 16.8908 36.9472 16.8461L38.6433 16.3161C38.6959 16.3074 38.7497 16.3074 38.8023 16.3161C38.9306 16.3159 39.0549 16.3615 39.1526 16.4447C39.2503 16.5279 39.3151 16.6433 39.3354 16.77C39.3556 16.8968 39.3299 17.0266 39.263 17.1361C39.196 17.2456 39.0922 17.3276 38.9701 17.3674L37.274 17.9062H37.115Z" fill="#4F4F4F"/>
<path d="M37.1151 17.9948C36.9812 17.9937 36.851 17.9505 36.7432 17.8712C36.6353 17.7919 36.5553 17.6805 36.5143 17.5531C36.4674 17.3949 36.4847 17.2247 36.5624 17.0792C36.6401 16.9337 36.772 16.8246 36.9295 16.7757L38.6168 16.2368H38.8023C38.9365 16.2365 39.0673 16.2792 39.1754 16.3587C39.2836 16.4382 39.3633 16.5503 39.403 16.6785C39.4277 16.7562 39.4367 16.8381 39.4295 16.9193C39.4224 17.0005 39.3993 17.0795 39.3616 17.1517C39.3238 17.224 39.2721 17.288 39.2095 17.3402C39.1469 17.3924 39.0745 17.4318 38.9967 17.4559L37.3006 17.9859C37.24 18.0015 37.1768 18.0045 37.1151 17.9948Z" fill="#4F4F4F"/>
<path d="M38.7139 16.5547L37.0267 17.0848C36.9892 17.0958 36.9543 17.1143 36.9241 17.1391C36.8939 17.1639 36.869 17.1945 36.8509 17.2291C36.8328 17.2637 36.8218 17.3016 36.8186 17.3406C36.8154 17.3795 36.8201 17.4187 36.8323 17.4558C36.8513 17.5156 36.8891 17.5676 36.94 17.6042C36.9909 17.6408 37.0523 17.66 37.115 17.659H37.2034L38.8906 17.129C38.9539 17.0968 39.0038 17.0433 39.0314 16.9778C39.0589 16.9124 39.0624 16.8394 39.0413 16.7716C39.0201 16.7038 38.9756 16.6458 38.9157 16.6077C38.8558 16.5696 38.7843 16.554 38.7139 16.5636V16.5547Z" fill="#4F4F4F"/>
<path d="M37.2652 22.6058C37.0649 22.5915 36.8755 22.5095 36.7281 22.3732C36.5808 22.2369 36.4842 22.0544 36.4544 21.8559C36.4246 21.6574 36.4632 21.4546 36.564 21.281C36.6649 21.1074 36.8218 20.9734 37.009 20.9009L38.6963 20.3708C38.7822 20.344 38.8713 20.3292 38.9613 20.3267C39.146 20.3286 39.3256 20.3885 39.4745 20.4979C39.6235 20.6072 39.7344 20.7605 39.7917 20.9362C39.8588 21.1565 39.8372 21.3942 39.7316 21.5988C39.626 21.8034 39.4447 21.9587 39.2263 22.0316L37.5567 22.6058C37.4602 22.622 37.3617 22.622 37.2652 22.6058Z" fill="#4F4F4F"/>
<path d="M37.2652 22.2701C37.1502 22.271 37.0379 22.2344 36.9455 22.1659C36.8531 22.0974 36.7854 22.0006 36.7528 21.8903C36.7111 21.7532 36.7246 21.6052 36.7907 21.4781C36.8568 21.3509 36.97 21.2547 37.1062 21.2101L38.8023 20.6801H38.9613C39.0772 20.6801 39.1901 20.7169 39.2838 20.7851C39.3774 20.8534 39.447 20.9496 39.4825 21.0599C39.5042 21.1283 39.5121 21.2004 39.5056 21.2719C39.499 21.3434 39.4783 21.4129 39.4446 21.4762C39.4108 21.5396 39.3648 21.5956 39.3091 21.6409C39.2534 21.6862 39.1892 21.7199 39.1203 21.7401L37.4331 22.2701C37.3774 22.2786 37.3208 22.2786 37.2652 22.2701Z" fill="#4F4F4F"/>
<path d="M37.2652 22.3585C37.1322 22.3584 37.0027 22.3153 36.8961 22.2358C36.7895 22.1562 36.7114 22.0443 36.6734 21.9168C36.6234 21.7587 36.6381 21.5872 36.7142 21.4398C36.7904 21.2925 36.9218 21.1813 37.0797 21.1306L38.7758 20.6006H38.9613C39.1076 20.6055 39.2476 20.6614 39.357 20.7587C39.4664 20.8559 39.5384 20.9884 39.5604 21.1331C39.5824 21.2778 39.5531 21.4257 39.4776 21.5511C39.4021 21.6764 39.2851 21.7715 39.1469 21.8197L37.4596 22.3497C37.3959 22.3646 37.33 22.3676 37.2652 22.3585Z" fill="#4F4F4F"/>
<path d="M38.873 20.9187L37.1769 21.4488C37.1038 21.475 37.0433 21.5276 37.0073 21.5964C36.9713 21.6651 36.9625 21.7449 36.9825 21.8198C37.0027 21.8788 37.0408 21.9301 37.0914 21.9665C37.1421 22.0029 37.2028 22.0227 37.2652 22.023H37.3536L39.0497 21.493C39.124 21.4686 39.1859 21.4162 39.2222 21.3469C39.2585 21.2776 39.2663 21.1969 39.244 21.1219C39.2339 21.0837 39.2161 21.0478 39.1917 21.0167C39.1674 20.9855 39.1369 20.9596 39.1022 20.9406C39.0674 20.9216 39.0292 20.9099 38.9898 20.9061C38.9504 20.9023 38.9107 20.9066 38.873 20.9187Z" fill="#4F4F4F"/>
<path d="M30.4896 24.7259C30.2924 24.7094 30.1064 24.6271 29.9615 24.4922C29.8166 24.3573 29.7212 24.1776 29.6907 23.982C29.6601 23.7864 29.6961 23.5862 29.793 23.4136C29.8898 23.2409 30.0418 23.1058 30.2246 23.0298L31.9207 22.491C32.0086 22.4776 32.0979 22.4776 32.1857 22.491C32.3824 22.5091 32.5673 22.5926 32.7109 22.7281C32.8545 22.8637 32.9486 23.0434 32.9781 23.2387C33.0076 23.4339 32.9708 23.6335 32.8736 23.8054C32.7764 23.9773 32.6244 24.1117 32.4419 24.1871L30.7546 24.7259C30.6668 24.7393 30.5775 24.7393 30.4896 24.7259Z" fill="#4F4F4F"/>
<path d="M30.4896 24.3727C30.3745 24.3736 30.2623 24.337 30.1699 24.2685C30.0775 24.2 30.0098 24.1032 29.9772 23.9929C29.9354 23.8558 29.949 23.7078 30.0151 23.5806C30.0812 23.4535 30.1944 23.3573 30.3306 23.3126L32.0179 22.7826C32.0735 22.7741 32.1301 22.7741 32.1857 22.7826C32.3008 22.7817 32.413 22.8183 32.5054 22.8868C32.5979 22.9554 32.6655 23.0521 32.6981 23.1625C32.7399 23.2995 32.7263 23.4475 32.6602 23.5747C32.5942 23.7019 32.4809 23.7981 32.3447 23.8427L30.6575 24.3727H30.4896Z" fill="#4F4F4F"/>
<path d="M30.4896 24.4786C30.3577 24.479 30.2291 24.4372 30.1226 24.3594C30.0161 24.2815 29.9373 24.1716 29.8977 24.0458C29.8477 23.8876 29.8624 23.7161 29.9386 23.5687C30.0147 23.4214 30.1462 23.3102 30.3041 23.2595L32.0002 22.7295H32.1857C32.3176 22.7291 32.4462 22.7709 32.5527 22.8487C32.6592 22.9266 32.738 23.0365 32.7776 23.1624C32.8276 23.3205 32.8129 23.492 32.7367 23.6394C32.6606 23.7867 32.5291 23.8979 32.3712 23.9486L30.6751 24.4786C30.6136 24.4872 30.5511 24.4872 30.4896 24.4786Z" fill="#4F4F4F"/>
<path d="M32.1062 23.0387L30.4101 23.5776C30.3391 23.5948 30.2771 23.638 30.2364 23.6986C30.1958 23.7593 30.1794 23.8331 30.1905 23.9053C30.2016 23.9775 30.2394 24.0429 30.2964 24.0885C30.3535 24.1342 30.4256 24.1568 30.4985 24.1518H30.5868L32.2829 23.6129C32.3572 23.5886 32.4191 23.5362 32.4554 23.4669C32.4917 23.3976 32.4995 23.3169 32.4772 23.2419C32.4528 23.1672 32.4008 23.1047 32.3319 23.0669C32.263 23.0292 32.1823 23.0191 32.1062 23.0387Z" fill="#4F4F4F"/>
<path d="M25.3748 24.6643H25.1628L23.4225 24.1961C23.3116 24.1698 23.2073 24.1209 23.1161 24.0525C23.0249 23.9841 22.9488 23.8977 22.8925 23.7986C22.7767 23.6014 22.7419 23.3671 22.7953 23.1449C22.8454 22.9505 22.9601 22.779 23.1207 22.6585C23.2813 22.5381 23.4781 22.476 23.6787 22.4823H23.8907L25.6575 22.924C25.8795 22.9843 26.0692 23.1287 26.1863 23.3267C26.3034 23.5247 26.3387 23.7605 26.2847 23.9841C26.2372 24.1864 26.12 24.3654 25.9536 24.4898C25.7872 24.6142 25.5822 24.676 25.3748 24.6643Z" fill="#4F4F4F"/>
<path d="M25.3748 24.3727H25.2423L23.5285 23.9311C23.4587 23.9147 23.393 23.8843 23.3353 23.8418C23.2776 23.7993 23.2291 23.7455 23.1928 23.6837C23.1443 23.6016 23.1185 23.508 23.118 23.4127C23.1175 23.3173 23.1423 23.2235 23.19 23.1408C23.2376 23.0582 23.3063 22.9897 23.389 22.9423C23.4718 22.8949 23.5656 22.8703 23.661 22.871H23.7935L25.5161 23.3127C25.6579 23.3314 25.7864 23.4057 25.8733 23.5192C25.9603 23.6327 25.9986 23.7761 25.9799 23.9178C25.9611 24.0595 25.8869 24.188 25.7734 24.275C25.6599 24.362 25.5165 24.4003 25.3748 24.3816V24.3727Z" fill="#4F4F4F"/>
<path d="M25.3748 24.417C25.3251 24.4252 25.2743 24.4252 25.2246 24.417L23.502 23.9753C23.3593 23.9327 23.2364 23.8408 23.1553 23.7159C23.0742 23.591 23.0401 23.4414 23.0593 23.2937C23.0784 23.146 23.1494 23.01 23.2597 22.9099C23.3699 22.8098 23.5122 22.7522 23.661 22.7474H23.8112L25.578 23.1891C25.7206 23.2316 25.8435 23.3236 25.9246 23.4485C26.0058 23.5733 26.0398 23.723 26.0207 23.8706C26.0015 24.0183 25.9305 24.1544 25.8203 24.2545C25.71 24.3546 25.5678 24.4122 25.4189 24.417H25.3748Z" fill="#4F4F4F"/>
<path d="M25.4543 23.4892L23.7317 23.0564C23.6941 23.0458 23.6548 23.0428 23.6161 23.0477C23.5774 23.0526 23.54 23.0651 23.5063 23.0847C23.4725 23.1043 23.443 23.1304 23.4195 23.1616C23.3961 23.1928 23.3791 23.2284 23.3696 23.2662C23.3602 23.3041 23.3584 23.3435 23.3644 23.382C23.3705 23.4206 23.3842 23.4575 23.4048 23.4907C23.4254 23.5238 23.4524 23.5525 23.4843 23.575C23.5161 23.5976 23.5522 23.6134 23.5903 23.6217L25.3041 24.0634H25.3748C25.4438 24.0588 25.5091 24.0305 25.5597 23.9833C25.6102 23.9361 25.643 23.8729 25.6523 23.8044C25.6616 23.7358 25.6471 23.6661 25.611 23.6071C25.5749 23.5481 25.5196 23.5034 25.4543 23.4804V23.4892Z" fill="#4F4F4F"/>
<path d="M18.502 22.915C18.4316 22.9235 18.3604 22.9235 18.29 22.915L16.5674 22.4733C16.3458 22.4146 16.1558 22.272 16.0373 22.0758C15.9193 21.8762 15.8844 21.6383 15.9402 21.4132C16.0004 21.1912 16.1449 21.0015 16.3429 20.8844C16.5408 20.7673 16.7767 20.732 17.0002 20.786L18.767 21.2189C18.9901 21.2797 19.1804 21.4256 19.297 21.6252C19.4128 21.8224 19.4476 22.0567 19.3942 22.279C19.3388 22.4699 19.2205 22.6366 19.0586 22.752C18.8967 22.8674 18.7006 22.9249 18.502 22.915Z" fill="#4F4F4F"/>
<path d="M18.502 22.606C18.4582 22.6146 18.4132 22.6146 18.3695 22.606L16.6027 22.1731C16.4654 22.137 16.348 22.0481 16.2758 21.9258C16.2378 21.8644 16.2127 21.796 16.2021 21.7246C16.1914 21.6532 16.1955 21.5804 16.214 21.5106C16.2438 21.3931 16.3123 21.2891 16.4085 21.2154C16.5047 21.1417 16.6229 21.1025 16.744 21.1042H16.8766L18.5903 21.5371C18.7303 21.5775 18.8501 21.6689 18.926 21.7933C18.9745 21.8754 19.0003 21.969 19.0008 22.0643C19.0013 22.1597 18.9765 22.2535 18.9289 22.3361C18.8813 22.4188 18.8126 22.4873 18.7298 22.5347C18.647 22.5821 18.5532 22.6067 18.4578 22.606H18.502Z" fill="#4F4F4F"/>
<path d="M18.502 22.6677C18.4523 22.6761 18.4015 22.6761 18.3518 22.6677L16.6292 22.2348C16.5492 22.2149 16.4743 22.1787 16.4089 22.1286C16.3436 22.0784 16.2893 22.0153 16.2493 21.9433C16.2054 21.8745 16.1765 21.7973 16.1643 21.7167C16.1521 21.6361 16.157 21.5537 16.1786 21.4751C16.2139 21.3405 16.2929 21.2215 16.4033 21.1367C16.5136 21.0519 16.649 21.0063 16.7882 21.0069C16.8379 20.9987 16.8886 20.9987 16.9384 21.0069L18.7051 21.4398C18.864 21.4834 18.9997 21.587 19.0838 21.7287C19.1678 21.8704 19.1936 22.0392 19.1557 22.1995C19.1188 22.3417 19.0332 22.4665 18.9137 22.5521C18.7942 22.6377 18.6485 22.6786 18.502 22.6677Z" fill="#4F4F4F"/>
<path d="M18.5727 21.7225L16.8589 21.2808C16.8212 21.2702 16.7817 21.2673 16.7428 21.2723C16.704 21.2773 16.6665 21.29 16.6327 21.3098C16.5989 21.3296 16.5695 21.356 16.5461 21.3875C16.5227 21.4189 16.5059 21.4547 16.4967 21.4928C16.4777 21.5689 16.4893 21.6494 16.5289 21.717C16.5686 21.7847 16.6331 21.8342 16.7087 21.855L18.4755 22.2878H18.5462C18.6123 22.2882 18.6767 22.2668 18.7294 22.2269C18.7821 22.187 18.8202 22.1308 18.8377 22.067C18.8452 22.0267 18.8442 21.9852 18.8347 21.9453C18.8251 21.9054 18.8072 21.868 18.7822 21.8354C18.7572 21.8029 18.7256 21.776 18.6895 21.7566C18.6534 21.7371 18.6136 21.7255 18.5727 21.7225Z" fill="#4F4F4F"/>
</svg>
