<svg width="30" height="36" viewBox="0 0 30 36" fill="none" xmlns="http://www.w3.org/2000/svg">
<path d="M19.6352 16.4822C19.2116 16.2482 18.729 16.1426 18.2463 16.1784H11.6231C11.2059 16.1618 10.7895 16.2297 10.3992 16.378C10.2486 16.4631 10.1269 16.5911 10.0495 16.7457C9.9722 16.9004 9.94282 17.0746 9.96516 17.2461C9.95171 17.425 9.98179 17.6046 10.0528 17.7693C10.1239 17.9341 10.2338 18.0792 10.3731 18.1923C10.7471 18.4234 11.1848 18.5298 11.6231 18.4961H16.9616C15.4308 20.4212 14.1881 22.5587 13.2724 24.8415C12.9253 25.6892 12.6353 26.5592 12.4044 27.4456C12.2482 28.012 12.1579 28.5946 12.1353 29.1817C12.1028 29.6286 12.2322 30.0723 12.4999 30.4317C12.6209 30.5717 12.772 30.6826 12.9418 30.7563C13.1116 30.8299 13.2958 30.8643 13.4807 30.857C13.6687 30.8668 13.8566 30.8362 14.0318 30.7673C14.2069 30.6984 14.3653 30.5929 14.4964 30.4577C14.822 30.0533 15.0293 29.5666 15.0953 29.0515C15.1561 28.7564 15.2255 28.3397 15.3036 27.7842C15.3818 27.2286 15.4599 26.7859 15.5207 26.4387C15.5814 26.0915 15.7029 25.6574 15.8592 25.1366C16.1804 24.0928 16.5989 23.0814 17.1092 22.1158C17.5021 21.3964 17.946 20.706 18.4373 20.0499C18.8626 19.4943 19.2446 18.9909 19.5831 18.5308C19.8585 18.2193 20.0339 17.8322 20.0866 17.4197C20.0914 17.2388 20.0529 17.0594 19.9744 16.8963C19.8959 16.7333 19.7796 16.5913 19.6352 16.4822Z" fill="#4F4F4F"/>
<path d="M28.6455 4.6507H26.9094V3.0535C26.975 2.67918 26.9578 2.29503 26.8592 1.92804C26.7605 1.56105 26.5827 1.22011 26.3383 0.929133C26.0939 0.638155 25.7887 0.404196 25.4442 0.243687C25.0998 0.0831789 24.7243 0 24.3443 0C23.9643 0 23.5889 0.0831789 23.2444 0.243687C22.9 0.404196 22.5948 0.638155 22.3504 0.929133C22.1059 1.22011 21.9282 1.56105 21.8295 1.92804C21.7308 2.29503 21.7137 2.67918 21.7793 3.0535V4.6507H8.94087V3.0535C9.00236 2.6807 8.982 2.29899 8.88118 1.93485C8.78037 1.57071 8.60152 1.23286 8.35705 0.944762C8.11259 0.656667 7.80836 0.425231 7.46548 0.266496C7.1226 0.107761 6.74929 0.025537 6.37145 0.025537C5.99361 0.025537 5.6203 0.107761 5.27742 0.266496C4.93454 0.425231 4.63031 0.656667 4.38585 0.944762C4.14138 1.23286 3.96254 1.57071 3.86172 1.93485C3.76091 2.29899 3.74054 2.6807 3.80204 3.0535V4.6507H1.37151C0.61631 4.6507 0 5.03264 0 5.51874V9.39891C0 9.39891 0 9.46835 0 9.50307V32.9403C0.00229638 33.5328 0.239261 34.1002 0.659011 34.5183C1.07876 34.9364 1.64709 35.1712 2.23956 35.1712H27.7688C28.0651 35.1701 28.3582 35.1102 28.6312 34.9949C28.9042 34.8797 29.1516 34.7114 29.3591 34.4999C29.5666 34.2884 29.7301 34.0378 29.84 33.7626C29.95 33.4874 30.0042 33.1932 29.9996 32.8969V13.1662C29.9996 13.1662 29.9996 13.1662 29.9996 13.1055V5.51008C30.017 5.03265 29.4007 4.6507 28.6455 4.6507ZM23.0379 3.0535C23.0379 2.70817 23.1751 2.37697 23.4193 2.13279C23.6635 1.8886 23.9947 1.75143 24.34 1.75143C24.6853 1.75143 25.0165 1.8886 25.2607 2.13279C25.5049 2.37697 25.6421 2.70817 25.6421 3.0535V4.6507H23.0379V3.0535ZM5.07806 3.0535C5.07806 2.70817 5.21525 2.37697 5.45943 2.13279C5.70362 1.8886 6.0348 1.75143 6.38013 1.75143C6.72546 1.75143 7.05665 1.8886 7.30083 2.13279C7.54502 2.37697 7.6822 2.70817 7.6822 3.0535V4.6507H5.07806V3.0535ZM28.116 32.8969C28.116 32.9379 28.1079 32.9786 28.0922 33.0165C28.0765 33.0544 28.0535 33.0888 28.0245 33.1179C27.9954 33.1469 27.961 33.1699 27.9231 33.1856C27.8852 33.2013 27.8445 33.2094 27.8035 33.2094H2.23088C2.18911 33.2105 2.14754 33.2033 2.10862 33.1881C2.0697 33.173 2.03422 33.1501 2.00428 33.121C1.97433 33.0919 1.95053 33.057 1.93429 33.0185C1.91805 32.98 1.90968 32.9387 1.9097 32.8969V13.9561H28.116V32.8969Z" fill="#4F4F4F"/>
</svg>
