<svg width="63" height="51" viewBox="0 0 63 51" fill="none" xmlns="http://www.w3.org/2000/svg">
<path d="M38.6592 7.54189C36.8908 4.61889 33.9525 2.7399 30.3857 2.25124C27.8489 1.90362 25.7742 2.58048 24.6111 3.11176C22.9146 1.0919 20.9836 0.00787354 16.9787 0.00787354C12.379 0.00787354 5.85909 2.39423 2.41343 7.63348C-1.59295 13.7256 0.127927 20.9419 2.27711 25.9229C2.47606 26.384 2.92567 26.6599 3.3979 26.6599L36.8585 26.5299C36.8585 26.5299 38.1915 26.4307 38.4204 25.7968C41.9059 16.1445 40.4741 10.542 38.6592 7.54189Z" fill="#6E563D"/>
<path d="M38.6797 7.66947C36.9114 4.74647 33.9731 2.86748 30.4062 2.37882C28.7865 2.15694 27.3567 2.35312 26.2307 2.66202C29.1475 3.40819 31.5428 5.14956 33.0673 7.66963C34.8822 10.6697 36.3142 16.2722 32.8287 25.9245C32.6 26.5583 31.2668 26.6577 31.2668 26.6577H36.8792C36.8792 26.6577 38.2122 26.5584 38.4411 25.9245C41.9265 16.2721 40.4946 10.6696 38.6797 7.66947Z" fill="#604B35"/>
<path d="M35.014 23.2396C34.552 23.2396 34.0936 23.3117 33.6519 23.4537C33.176 23.6068 32.8417 24.0349 32.8082 24.5338C32.6967 26.201 32.2619 27.8001 31.5158 29.2865C31.2914 29.7337 31.3627 30.2725 31.6957 30.6458C32.5407 31.5932 33.7502 32.1367 35.0138 32.1367C37.4667 32.1367 39.4623 30.141 39.4623 27.6881C39.4623 25.2352 37.4669 23.2396 35.014 23.2396Z" fill="#E09C77"/>
<path d="M9.15428 29.2867C8.40828 27.7999 7.97347 26.2009 7.86204 24.5338C7.82869 24.0349 7.49424 23.6068 7.01827 23.4537C6.57647 23.3115 6.11823 23.2396 5.65641 23.2396C3.20336 23.2396 1.20773 25.2352 1.20773 27.6881C1.20773 30.141 3.20336 32.1367 5.65641 32.1367C6.92019 32.1367 8.12947 31.5933 8.97437 30.646C9.30735 30.2726 9.37877 29.7339 9.15428 29.2867Z" fill="#F7B081"/>
<path d="M34.267 20.0166C28.2276 18.9783 24.0479 12.8494 24.0073 12.7889C23.7564 12.4135 23.3197 12.204 22.8714 12.2492C22.4222 12.2947 22.0365 12.5807 21.8662 12.9988C21.8589 13.0162 21.1012 14.7644 18.8769 16.4853C15.9059 18.7839 11.6641 19.9989 6.60997 19.9989C5.9362 19.9989 5.38995 20.5451 5.38995 21.2189V23.6871C5.38995 31.9279 12.0944 38.6322 20.335 38.6322C28.5757 38.6322 35.2801 31.9279 35.2801 23.6871V21.2189C35.2802 20.625 34.8524 20.1173 34.267 20.0166Z" fill="#FFC89F"/>
<path d="M34.267 20.0166C32.6886 19.7453 31.2389 19.1247 29.9553 18.3572V23.6873C29.9553 31.0202 24.6462 37.1356 17.6702 38.3942C18.5351 38.5505 19.4257 38.6323 20.335 38.6323C28.5758 38.6323 35.2801 31.9281 35.2801 23.6873V21.2191C35.2802 20.625 34.8524 20.1173 34.267 20.0166Z" fill="#F7B081"/>
<path d="M14.6635 28.1184C13.5728 28.1184 12.6855 27.2312 12.6855 26.1405C12.6855 25.0498 13.5728 24.1624 14.6635 24.1624C15.7542 24.1624 16.6414 25.0498 16.6414 26.1405C16.6414 27.231 15.7542 28.1184 14.6635 28.1184Z" fill="#464649"/>
<path d="M26.0068 28.1184C24.9161 28.1184 24.0287 27.2312 24.0287 26.1405C24.0287 25.0498 24.9161 24.1624 26.0068 24.1624C27.0975 24.1624 27.9849 25.0498 27.9849 26.1405C27.9847 27.231 27.0975 28.1184 26.0068 28.1184Z" fill="#464649"/>
<path d="M35.3024 42.163C34.5251 40.7434 34.057 39.2039 33.9114 37.5868C33.8664 37.0868 33.4906 36.6797 32.9959 36.5946C32.7676 36.5555 32.5386 36.5356 32.3155 36.5356C30.0891 36.5356 28.2778 38.3469 28.2778 40.5735C28.2778 42.7999 30.0891 44.6112 32.3155 44.6112C33.353 44.6112 34.3399 44.2155 35.0947 43.4969C35.4583 43.1508 35.5437 42.6035 35.3024 42.163Z" fill="#F7B081"/>
<path d="M58.9622 36.5358C58.739 36.5358 58.51 36.5557 58.2819 36.5948C57.7871 36.6797 57.4113 37.0868 57.3664 37.5869C57.2208 39.2039 56.7528 40.7434 55.9754 42.1632C55.7343 42.6035 55.8195 43.1509 56.183 43.4971C56.9378 44.2157 57.9248 44.6114 58.9622 44.6114C61.1886 44.6114 63.0001 42.8 63.0001 40.5737C63.0001 38.3471 61.1886 36.5358 58.9622 36.5358Z" fill="#E09C77"/>
<path d="M45.6388 22.525C37.9241 22.525 31.6477 28.8013 31.6477 36.5161C31.6477 44.2309 37.9241 50.5073 45.6388 50.5073C53.3537 50.5073 59.63 44.2309 59.63 36.5161C59.63 28.8013 53.3537 22.525 45.6388 22.525Z" fill="#FFC89F"/>
<path d="M45.6388 22.525C44.7597 22.525 43.8995 22.6074 43.0649 22.7631C49.5545 23.9749 54.4821 29.6804 54.4821 36.516C54.4821 43.3515 49.5543 49.0571 43.0649 50.2688C43.8995 50.4247 44.7596 50.5071 45.6388 50.5071C53.3537 50.5071 59.63 44.2307 59.63 36.516C59.63 28.8012 53.3537 22.525 45.6388 22.525Z" fill="#F7B081"/>
<path d="M40.4909 39.6352C39.5009 39.6352 38.6955 38.8297 38.6955 37.8399C38.6955 36.8499 39.5009 36.0445 40.4909 36.0445C41.4809 36.0445 42.2863 36.8499 42.2863 37.8399C42.2863 38.8299 41.4809 39.6352 40.4909 39.6352Z" fill="#464649"/>
<path d="M50.7868 39.6352C49.7968 39.6352 48.9915 38.8297 48.9915 37.8399C48.9915 36.8499 49.7968 36.0445 50.7868 36.0445C51.7768 36.0445 52.5822 36.8499 52.5822 37.8399C52.5822 38.8299 51.7768 39.6352 50.7868 39.6352Z" fill="#464649"/>
<path d="M45.0234 24.7397C44.9277 24.7397 44.8315 24.7273 44.7367 24.7019C40.1243 23.4651 39.4255 19.4848 39.398 19.316C39.2997 18.7124 39.7094 18.1434 40.313 18.0451C40.9139 17.9475 41.4808 18.3531 41.5828 18.9524C41.6015 19.0556 41.9342 20.7395 43.6735 21.8537C43.6137 20.9775 43.6194 19.9394 43.8253 19.0039C43.9568 18.4067 44.5478 18.0291 45.1448 18.1605C45.7422 18.2921 46.1197 18.8828 45.9882 19.4801C45.6871 20.8476 45.9712 22.7729 46.106 23.3994C46.1872 23.7766 46.0661 24.1688 45.7866 24.4348C45.5783 24.633 45.304 24.7397 45.0234 24.7397Z" fill="#464649"/>
</svg>
