<svg width="20" height="20" viewBox="0 0 20 20" fill="none" xmlns="http://www.w3.org/2000/svg">
<g clip-path="url(#clip0)">
<path d="M18.6628 9.89167C18.6628 14.6181 14.8314 18.4494 10.1054 18.4494C5.37897 18.4494 1.54764 14.6181 1.54764 9.89167C1.54764 5.16565 5.37897 1.33432 10.1054 1.33432C14.8314 1.33432 18.6628 5.16565 18.6628 9.89167Z" fill="white"/>
<path d="M10.1054 18.4494C14.8317 18.4494 18.6632 14.618 18.6632 9.89166C18.6632 5.16534 14.8317 1.33389 10.1054 1.33389C5.37908 1.33389 1.54764 5.16534 1.54764 9.89166C1.54764 14.618 5.37908 18.4494 10.1054 18.4494Z" stroke="black" stroke-width="0.217"/>
<path fill-rule="evenodd" clip-rule="evenodd" d="M20 9.99979C20 15.5228 15.5232 20 10.0002 20C4.47761 20 0 15.5228 0 9.99979C0 4.47678 4.47761 0 10.0002 0C15.5232 0 20 4.47678 20 9.99979ZM10.0002 2.54921C5.88498 2.54921 2.54921 5.88498 2.54921 9.99979C2.54921 14.1146 5.88498 17.4508 10.0002 17.4508C14.115 17.4508 17.4508 14.1146 17.4508 9.99979C17.4508 5.88498 14.115 2.54921 10.0002 2.54921Z" fill="#005BAC"/>
<path fill-rule="evenodd" clip-rule="evenodd" d="M7.20594 7.17002C7.21721 7.17002 7.22681 7.16835 7.23683 7.16835L8.4772 7.17921L8.48054 6.06868C8.48681 6.01649 8.47595 5.95303 8.47595 5.89959C8.47595 5.19779 7.90691 4.62958 7.20594 4.62958C6.52584 4.62958 5.97225 5.16439 5.93968 5.83571H5.93592V7.16835H7.17421C7.18506 7.16835 7.19508 7.17002 7.20594 7.17002ZM12.7711 7.25811C13.4725 7.25811 14.0411 6.68991 14.0411 5.98768C14.0411 5.28588 13.4725 4.71642 12.7711 4.71642C12.0685 4.71642 11.5011 5.28588 11.5011 5.98768C11.5011 6.68991 12.0685 7.25811 12.7711 7.25811ZM12.7711 7.41175C11.7883 7.41175 10.9905 8.19789 10.9721 9.17524H9.00575C9.00658 9.15144 9.00742 9.12765 9.00742 9.1051C9.00742 8.11063 8.20166 7.30571 7.20886 7.30571C6.21439 7.30571 5.40863 8.11063 5.40863 9.1051C5.40863 9.17315 5.4128 9.24079 5.4199 9.30759V14.3977H8.99573V10.9625H10.9826V14.5262H14.5588V9.41405C14.5659 9.34683 14.5705 9.27961 14.5705 9.21031C14.5705 8.21668 13.7648 7.41175 12.7711 7.41175Z" fill="#00A84E"/>
<path fill-rule="evenodd" clip-rule="evenodd" d="M1.9213 10.1531H0.655884V10.3276H1.56143L0.655884 10.7693V10.948H1.9213V10.7735H1.02328L1.9213 10.3476V10.1531ZM0.936439 12.3395L2.11794 11.7667L2.08413 11.5851L0.77654 11.4715L0.809939 11.6531L1.06503 11.6706L1.13517 12.0497L0.903457 12.1579L0.936439 12.3395ZM1.83029 11.7253L1.34224 11.9499L1.28588 11.689L1.83029 11.7253ZM2.33337 12.5445L2.23484 12.2468L2.01649 12.3219L2.11502 12.62L1.13141 12.9415L1.18652 13.1081L2.17013 12.7866L2.26574 13.0768L2.48409 13.0016L2.33337 12.5445ZM2.59347 13.2763L1.44244 13.8015L1.51508 13.961L2.66653 13.4358L2.59347 13.2763ZM2.96253 13.9806C2.87402 13.8328 2.72164 13.8237 2.50538 13.9539C2.43315 13.9977 2.36051 14.0416 2.28786 14.085C2.21731 14.1276 2.14508 14.171 2.0716 14.2153C1.85409 14.3464 1.78979 14.4854 1.87872 14.6332C1.90795 14.682 1.93801 14.7313 1.96806 14.7818L2.05657 14.9283C2.1455 15.0761 2.29872 15.0845 2.51665 14.9542C2.58888 14.9108 2.6611 14.8674 2.73291 14.824C2.80555 14.7801 2.8782 14.7367 2.95042 14.6933C3.16627 14.563 3.22973 14.424 3.1408 14.2758C3.11116 14.227 3.08152 14.1777 3.05229 14.1288C3.02265 14.08 2.99301 14.0303 2.96253 13.9806ZM2.24361 14.3167C2.2887 14.2896 2.33379 14.2624 2.37888 14.2353C2.42355 14.2082 2.46822 14.1814 2.51331 14.1543C2.64607 14.0742 2.76005 14.0675 2.81349 14.1543C2.83102 14.184 2.84856 14.2136 2.86651 14.2428C2.88321 14.2712 2.90116 14.3 2.91911 14.3301C2.9713 14.4169 2.91035 14.5117 2.77717 14.5923C2.73208 14.6194 2.6874 14.6465 2.64273 14.6737C2.59764 14.7004 2.55255 14.7275 2.50747 14.7547C2.37262 14.8357 2.25864 14.8323 2.20645 14.7451C2.1885 14.7154 2.17097 14.6862 2.15343 14.6578C2.1359 14.6282 2.11836 14.5989 2.10041 14.5697C2.04822 14.4825 2.10959 14.3981 2.24361 14.3167ZM3.50235 14.8202L2.54212 15.6448L2.65568 15.7771L3.34287 15.1872L2.94375 16.1124L3.05981 16.2476L4.02004 15.4231L3.90648 15.2911L3.22472 15.876L3.62927 14.968L3.50235 14.8202ZM4.09436 17.2254L4.63376 16.0284L4.49181 15.9107L3.4151 16.6618L3.55746 16.7799L3.76454 16.6296L4.06096 16.8759L3.95283 17.1077L4.09436 17.2254ZM4.3866 16.1812L4.16992 16.6417L3.97328 16.4789L4.3866 16.1812ZM4.71517 17.4291L5.30634 16.5641L5.16147 16.4647L4.44463 17.5072L5.01075 17.8967L5.13642 17.7189L4.71517 17.4291ZM6.76255 18.2007L6.55088 18.6841L6.71162 18.7542L7.21846 17.5944L7.05772 17.5243L6.85398 18.0044L6.44735 17.8266L6.65067 17.3465L6.48993 17.2763L5.98309 18.4361L6.14425 18.5063L6.35591 18.0232L6.76255 18.2007ZM7.36333 18.9601L7.91609 19.1354L7.98873 18.9062L7.43597 18.7309L7.52824 18.4411L8.01587 18.5956L8.07849 18.3969L7.59086 18.242L7.67811 17.9635L8.21292 18.133L8.28056 17.9234L7.57875 17.7005L7.19591 18.907L7.36333 18.9601ZM9.2792 19.34L9.13141 18.0357L8.94938 18.0069L8.40748 19.2026L8.58992 19.2314L8.69095 18.9964L9.07171 19.0565L9.09717 19.3112L9.2792 19.34ZM8.99697 18.2929L9.04582 18.8507L8.76819 18.8056L8.99697 18.2929ZM9.91254 19.1191V18.0737H9.73719V19.3392H10.4244V19.1191H9.91254ZM10.8536 18.0449L10.5413 18.0767L10.5659 18.3159L10.8778 18.2841L10.9809 19.3041L11.1558 19.2861L11.0523 18.2666L11.3566 18.2357L11.3324 17.9965L10.8536 18.0449ZM12.4392 18.5008L12.5707 19.001L12.7402 18.9563L12.4187 17.7322L12.2488 17.7769L12.3782 18.2683L11.9486 18.381L11.8196 17.8896L11.6497 17.9343L11.9712 19.1584L12.1411 19.1137L12.0096 18.6136L12.4392 18.5008ZM13.2646 17.4082L13.7639 18.571L13.9251 18.5017L13.4253 17.3394L13.2646 17.4082ZM13.7472 17.1861L14.4023 18.2687L14.5517 18.1785L14.0829 17.4037L14.9295 17.9497L15.0824 17.8571L14.4273 16.7745L14.2783 16.8647L14.7429 17.6333L13.9138 17.0851L13.7472 17.1861ZM15.476 16.6246C15.4063 16.6801 15.3258 16.7444 15.2352 16.8162C15.1984 16.8459 15.1492 16.8075 15.102 16.7486C15.0485 16.6814 15.0064 16.6192 15.0469 16.587C15.0945 16.549 15.1299 16.5211 15.1525 16.5027C15.1746 16.4852 15.2093 16.458 15.2552 16.4213C15.2965 16.3883 15.3441 16.4159 15.4009 16.4864L15.5383 16.377C15.451 16.2677 15.4013 16.21 15.345 16.1833C15.2898 16.1574 15.2372 16.165 15.1863 16.205C15.1183 16.2593 15.0636 16.3027 15.0231 16.3353C14.983 16.367 14.9521 16.3917 14.93 16.4092C14.7897 16.5211 14.7843 16.6584 14.9141 16.8217C14.9216 16.8313 14.9333 16.8459 14.9492 16.8655C14.9629 16.883 14.9838 16.9093 15.0122 16.9448C15.1316 17.0947 15.2222 17.1006 15.3379 17.0083C15.4268 16.9377 15.5028 16.8739 15.5733 16.8179C15.6159 16.7837 15.661 16.7954 15.7073 16.8534C15.772 16.9352 15.8347 17.0358 15.7925 17.0692C15.742 17.1097 15.7053 17.139 15.6819 17.1573C15.6593 17.1753 15.6209 17.2058 15.5675 17.2483C15.5282 17.2797 15.4965 17.2592 15.4506 17.2008C15.4393 17.187 15.4268 17.1711 15.413 17.1536L15.2757 17.263C15.3057 17.3055 15.3333 17.346 15.3592 17.3778C15.471 17.5151 15.5499 17.5185 15.6489 17.4546C15.7203 17.4082 15.77 17.3582 15.8113 17.3252C15.8526 17.2922 15.9061 17.2492 15.9729 17.1962C16.0726 17.1168 16.0614 17.0008 15.9386 16.8467C15.9136 16.8154 15.8927 16.7891 15.8756 16.7674C15.8606 16.7486 15.8422 16.7256 15.8209 16.6989C15.6965 16.5428 15.5971 16.5286 15.476 16.6246ZM15.5863 15.8493L16.2071 16.4497C16.3991 16.6351 16.5661 16.6555 16.7077 16.5102C16.7252 16.4919 16.7469 16.4697 16.7724 16.443C16.7991 16.4159 16.8195 16.3946 16.8342 16.3795C16.9769 16.2318 16.9523 16.0643 16.7594 15.8781L16.1386 15.2778L16.0167 15.4039L16.6146 15.9729C16.7198 16.0731 16.7381 16.1583 16.6722 16.2267C16.6521 16.2476 16.6338 16.2664 16.6166 16.2839C16.5999 16.3011 16.5812 16.3207 16.5607 16.342C16.4956 16.4092 16.4112 16.3921 16.306 16.2923L15.7082 15.7232L15.5863 15.8493ZM17.495 15.0056L17.7735 15.1955L17.8725 15.0502L17.594 14.8603C17.5355 14.8206 17.4717 14.8014 17.4015 14.8023C17.3811 14.7392 17.3222 14.6749 17.2258 14.609C17.2032 14.5939 17.1811 14.5785 17.1594 14.5639C17.1368 14.5484 17.1147 14.5334 17.0917 14.5179C16.9164 14.3977 16.7891 14.3948 16.7106 14.5079C16.693 14.5334 16.6726 14.5639 16.6488 14.5989L16.3791 14.9939L17.4245 15.707L17.5234 15.5621L17.1427 15.3024L17.313 15.0519C17.3364 15.0185 17.3631 14.9956 17.3944 14.9843C17.4266 14.9747 17.4604 14.9818 17.495 15.0056ZM16.8471 14.7346C16.8579 14.7188 16.8713 14.6996 16.8872 14.6758C16.9139 14.6369 16.9715 14.6482 17.0604 14.7092C17.1485 14.7689 17.1803 14.819 17.1544 14.8586C17.1381 14.8824 17.1247 14.9016 17.1147 14.9167L16.944 15.1667L16.6768 14.9843L16.8471 14.7346ZM18.5363 13.8779L17.2537 13.5995L17.1681 13.7631L18.1267 14.6595L18.2127 14.4958L18.0223 14.3246L18.2014 13.9831L18.4507 14.0412L18.5363 13.8779ZM17.4545 13.8095L17.9497 13.9255L17.8315 14.1514L17.4545 13.8095ZM17.5213 13.0342L18.7141 13.4571L18.7726 13.2926L17.9192 12.9899L18.9204 12.8764L18.9801 12.7077L17.7873 12.2852L17.7288 12.4497L18.5755 12.7494L17.5869 12.8509L17.5213 13.0342ZM18.3183 11.1342C18.1242 11.0983 18.0106 11.1651 17.9781 11.3346C17.9676 11.3909 17.9572 11.4473 17.9468 11.5032C17.9363 11.5596 17.9259 11.6164 17.915 11.674C17.8833 11.8431 17.9914 11.9508 18.2394 11.9971C18.3229 12.0126 18.406 12.028 18.4891 12.0435C18.5705 12.0585 18.6532 12.0739 18.7375 12.0894C18.9872 12.1361 19.1274 12.0744 19.1592 11.9053C19.1696 11.8489 19.18 11.7921 19.1909 11.7345C19.2013 11.6786 19.2122 11.6218 19.2226 11.5642C19.2544 11.393 19.1633 11.287 18.9496 11.2465C18.8782 11.2331 18.8707 11.2298 18.8001 11.2168L18.768 11.3893C18.8076 11.3968 18.8427 11.4085 18.8828 11.416C19.0014 11.4377 19.0231 11.4961 19.0039 11.5988C18.9976 11.6331 18.9913 11.6673 18.9851 11.7007C18.9788 11.7345 18.9725 11.7683 18.9663 11.8022C18.9475 11.9019 18.8306 11.9278 18.6761 11.8994C18.6244 11.8898 18.5726 11.8802 18.5212 11.8706C18.4699 11.861 18.4181 11.8514 18.3668 11.8418C18.214 11.8138 18.1263 11.7491 18.1442 11.6485C18.1501 11.6147 18.1568 11.5809 18.163 11.5471C18.1689 11.5149 18.1751 11.4815 18.1814 11.4473C18.2002 11.3471 18.2599 11.3062 18.3609 11.3245C18.3947 11.3308 18.3797 11.3233 18.4144 11.3296L18.4465 11.1571C18.3801 11.1446 18.3835 11.1463 18.3183 11.1342ZM19.3579 10.6411V10.0608H19.1279V10.6411H18.8352V10.1293H18.6148L18.6152 10.6411H18.3125V10.08H18.0925V10.8165H19.3579V10.6411Z" fill="white"/>
<path d="M17.1944 5.44451L17.065 5.28336L17.2679 5.11803L17.4408 5.33262L17.27 5.47039C17.2583 5.48167 17.2466 5.48292 17.2345 5.47791C17.222 5.4729 17.2082 5.46246 17.1944 5.44451ZM16.6162 4.73686L16.5018 4.59449L16.7093 4.42499L16.8688 4.62246L16.6922 4.76692C16.6822 4.77569 16.6705 4.77735 16.6584 4.77318C16.6459 4.76775 16.6317 4.75565 16.6162 4.73686ZM15.5896 4.3035L15.7295 4.47676C15.7787 4.53479 15.8267 4.57028 15.8743 4.58113C15.9198 4.59241 15.9653 4.58197 16.0079 4.54648L16.4392 4.19829C16.4601 4.18159 16.4726 4.15696 16.4764 4.1269C16.4789 4.09559 16.4743 4.05885 16.4617 4.01627C16.501 4.03756 16.5377 4.04925 16.572 4.04883C16.6074 4.048 16.6396 4.0363 16.6697 4.01209L17.1644 3.61172L16.7156 3.05394L15.2706 4.22376L15.4355 4.42875L15.5896 4.3035ZM16.1862 3.82004L16.2296 3.8739C16.2568 3.9073 16.2747 3.93402 16.2843 3.95364C16.2939 3.97452 16.2939 3.98788 16.2868 3.99539L15.8885 4.31728C15.8768 4.32605 15.8664 4.3298 15.8576 4.3298C15.848 4.3298 15.8405 4.32438 15.8326 4.31519L15.7311 4.18869L16.1862 3.82004ZM16.7394 3.37291L16.8634 3.52738L16.478 3.83883C16.4668 3.84802 16.4555 3.85094 16.4417 3.84551C16.4296 3.8405 16.4162 3.82923 16.4012 3.81044L16.3215 3.71191L16.7394 3.37291ZM17.3101 3.91481L17.2195 3.88643C17.2015 3.88058 17.1828 3.86973 17.1644 3.85428C17.1443 3.83841 17.1251 3.8167 17.1026 3.78957L17.0654 3.74281L16.9281 3.85303L17.0433 3.99581C17.0813 4.04382 17.0997 4.06094 17.1347 4.08807C17.1736 4.11855 17.3481 4.13024 17.3999 4.14611L17.7526 4.59157L17.8562 4.72433C17.8616 4.77944 17.8424 4.96523 17.8637 5.00906C17.8825 5.04956 17.8904 5.0671 17.928 5.11552L18.0549 5.27709L18.1931 5.16855L18.1434 5.10425C18.1217 5.07712 18.1058 5.05332 18.0937 5.02952C18.0837 5.00823 18.0774 4.98735 18.0758 4.96857L18.0691 4.87463L18.0904 4.71139L17.4733 3.93151L17.3101 3.91481ZM16.192 5.27584L16.4501 5.61192L16.4509 5.60942L16.4538 5.61359C16.4905 5.6591 16.5294 5.68958 16.5711 5.70669C16.6116 5.72131 16.6525 5.72214 16.6947 5.70711L16.8797 5.63614L16.7736 5.86826C16.7607 5.9025 16.7552 5.93548 16.7573 5.96345C16.759 5.99309 16.7694 6.01731 16.7857 6.03944L16.911 6.19349L17.0387 6.09037L16.994 6.03484C16.9832 6.02065 16.9753 6.0052 16.9748 5.99101C16.974 5.97598 16.9778 5.96095 16.9874 5.9455C17.0454 5.74636 17.04 5.79395 16.941 5.61401L17.0821 5.55389L17.1598 5.65075C17.2011 5.70294 17.2391 5.73467 17.2746 5.74719C17.3093 5.7593 17.3431 5.75512 17.3727 5.73091L17.7359 5.43532L17.2366 4.81618L16.7832 5.18358L16.8997 5.32803L16.6012 5.45161C16.5799 5.45787 16.5628 5.45954 16.5482 5.45745C16.5352 5.45536 16.5227 5.44952 16.5164 5.44117L16.4292 5.32093L16.4296 5.32051L16.3929 5.27375C16.382 5.26039 16.3753 5.24662 16.3753 5.23367C16.3749 5.2199 16.3782 5.2057 16.3878 5.18984C16.4459 5.01741 16.4609 5.06125 16.3674 4.90219L16.5006 4.84624L16.5803 4.94519C16.6196 4.99362 16.6563 5.02409 16.6909 5.03578C16.7252 5.04789 16.7577 5.04163 16.7882 5.01741L17.1573 4.71724L16.6788 4.12314L16.2183 4.49596L16.3206 4.62246L16.0338 4.74646C16.0134 4.75314 15.9962 4.75606 15.9829 4.75565C15.9695 4.75439 15.9603 4.75022 15.9524 4.7402L15.8952 4.66922L15.7729 4.76775L15.8881 4.91095C15.924 4.95479 15.9624 4.98568 16.0021 4.99946C16.0422 5.01449 16.0831 5.01449 16.1252 4.99904L16.2488 4.94936L16.1783 5.10968C16.1649 5.14224 16.1607 5.17356 16.1632 5.20069C16.1645 5.22825 16.1749 5.25246 16.1916 5.27334L16.1933 5.27584H16.192ZM16.8959 3.98495L17.9155 5.27292L17.789 5.3727L16.7694 4.08432L16.8959 3.98495ZM7.28232 0.68843L7.19799 1.17022C7.19173 1.20111 7.18338 1.22533 7.17294 1.24244C7.16167 1.25873 7.14789 1.26833 7.13161 1.27125L7.02723 1.2892L7.06397 1.50546L7.24517 1.47457L7.45141 2.69657L7.72236 2.65106L7.46894 1.1556L7.57707 0.638748L7.28232 0.68843ZM8.13902 0.637496L8.16657 0.788628L8.56069 0.724752L8.58741 0.878389L8.10562 0.956878L8.13484 1.11678L8.61705 1.03787L8.64377 1.18942L8.24965 1.2533L8.27554 1.40443L8.67007 1.34055L8.6993 1.50045L8.26552 1.57101L8.29474 1.73133L8.72643 1.66035L8.75315 1.80522L8.27178 1.88371L8.30017 2.04361L8.78154 1.96512L8.79782 2.05363L9.10343 2.00353L9.08798 1.91544L9.67038 1.82025L9.64241 1.66035L9.05834 1.75596L9.03412 1.60984L9.56726 1.52342L9.53971 1.36393L9.00532 1.45035L8.97693 1.29087L9.24412 1.24662C9.32303 1.23451 9.38106 1.21322 9.41738 1.18358C9.45412 1.1556 9.4679 1.11803 9.45997 1.07294L9.43074 0.905109L9.58313 0.880059L9.55516 0.720577L9.40152 0.745626L9.34766 0.440439L8.84041 0.52352L8.81953 0.410797L8.51435 0.460479L8.53313 0.573202L8.13902 0.637496ZM8.86713 0.674235L9.10718 0.634991L9.13516 0.788628L8.89385 0.827873L8.86713 0.674235ZM7.76954 1.57602L7.74365 1.58019L7.76703 1.71379L7.83383 1.70377L7.83341 1.70336C7.85053 1.70878 7.86473 1.72047 7.86932 1.75387C7.90397 1.91252 7.94447 2.06991 7.97327 2.2294C7.97703 2.25027 7.97411 2.27574 7.96659 2.28659C7.95198 2.30747 7.93319 2.31916 7.91232 2.32291L7.86389 2.33293L7.89479 2.51329L8.03673 2.48866C8.08266 2.47989 8.12107 2.46194 8.14904 2.4323C8.17284 2.4085 8.22168 2.26906 8.22252 2.26906C8.31729 2.32166 8.49013 2.42103 8.58448 2.40474L9.84698 2.19307L9.81692 2.01188L8.73603 2.19057C8.62665 2.20852 8.15029 2.04946 8.15029 1.97055C8.12691 1.77809 8.07639 1.57518 7.97912 1.56642L7.97954 1.56558C8.0192 1.55974 8.05218 1.50296 8.04675 1.46371L7.93236 0.770259C7.9261 0.731014 7.88978 0.703042 7.85011 0.70847L7.63469 0.739364L7.58834 0.746879L7.61548 0.928071L7.66516 0.919721C7.69815 0.913876 7.73405 0.915128 7.7399 0.960635L7.83467 1.50922C7.83884 1.54012 7.8092 1.56976 7.76954 1.57602ZM8.92224 0.987772L9.16396 0.948111L9.18442 1.06751C9.18693 1.07837 9.18233 1.08755 9.1719 1.0959C9.1623 1.10175 9.14685 1.10801 9.12514 1.11093L8.94896 1.13974L8.92224 0.987772ZM4.62498 2.9884C5.14518 2.6686 5.65911 2.35172 6.17931 2.0315C6.23734 1.99685 6.27408 1.95886 6.29161 1.92003C6.30748 1.88037 6.30247 1.83904 6.27575 1.79604L5.94384 1.25622L3.94405 2.48407L4.8283 3.92442C4.85711 3.97285 4.89426 3.99915 4.93977 4.00541C4.98402 4.01042 5.03746 3.99456 5.09925 3.95698L5.93967 3.44054L5.82986 3.25977L5.13516 3.6877C5.11553 3.69939 5.1005 3.7069 5.08631 3.70565C5.0717 3.70607 5.06168 3.69981 5.05374 3.6877L4.85377 3.36289C5.20488 3.14663 5.55181 2.93287 5.89959 2.71912L6.51539 2.96836C6.58093 3.02221 6.69074 2.98715 6.75378 2.94832L7.06481 2.77589L6.94582 2.61057L6.73666 2.72246C6.71829 2.73331 6.70034 2.73874 6.68531 2.73999C6.66903 2.73957 6.654 2.73331 6.64064 2.72329L6.18599 2.54293C6.3463 2.44441 6.50746 2.34546 6.66986 2.24651L6.56591 2.07409C6.35966 2.20017 6.15551 2.32542 5.95219 2.45067L5.80815 2.39347L5.52384 2.56715L5.66829 2.6256C5.36227 2.81389 5.05709 3.00218 4.74856 3.1913L4.62498 2.9884ZM4.32021 2.49242L5.77768 1.59648L5.95511 1.88246C5.96221 1.89624 5.96305 1.90709 5.95678 1.91836C5.95094 1.92964 5.93883 1.94133 5.92088 1.95302L4.51768 2.81472L4.32021 2.49242ZM3.58751 3.5875L2.17805 5.36185L2.34296 5.4921L2.95208 4.726L3.18463 4.90928L2.59054 5.66244L2.75419 5.79019L3.34829 5.03829L3.56705 5.21155L2.92077 6.029L3.09236 6.1651L4.58365 4.27887L4.41122 4.14318L3.75826 4.96982L3.53866 4.79739L4.13944 4.03631L3.97745 3.90814L3.37584 4.66839L3.14246 4.48428L3.752 3.71734L3.58751 3.5875ZM2.00438 4.81535L2.01565 4.92765C2.01857 4.95061 2.01481 4.97441 2.00521 4.99821C1.99561 5.02284 1.97933 5.04831 1.95762 5.0767L1.84155 5.22282L1.96054 5.31634L2.15551 5.0696C2.19433 5.02034 2.22356 4.97399 2.23859 4.92932C2.25529 4.88507 2.25905 4.84374 2.25237 4.80241L2.24944 4.57863L2.53209 4.22334L2.86692 3.8046L3.0861 3.757C3.1266 3.75491 3.16709 3.7403 3.20634 3.71525C3.24558 3.6902 3.28441 3.65138 3.32491 3.60253L3.52113 3.35746L3.40381 3.26269L3.28691 3.4084C3.26479 3.43595 3.24266 3.45724 3.22095 3.47269C3.20008 3.48647 3.17795 3.49565 3.15499 3.49816L3.0431 3.51235L2.84771 3.50651L2.40016 4.06511L2.39974 4.0647L2.37427 4.09768L2.34547 4.13316L2.34588 4.13358L1.95553 4.62664L2.00438 4.81535ZM12.1014 2.28242L12.1386 2.43564C12.1503 2.48073 12.1707 2.51705 12.2008 2.54544C12.2296 2.57216 12.2693 2.59136 12.3173 2.60013L12.6847 2.66818L12.716 2.50118L12.4701 2.45568C12.4567 2.45317 12.4459 2.44774 12.4375 2.43939C12.4292 2.43063 12.4246 2.41894 12.4217 2.40391L12.4129 2.34003L12.1014 2.28242ZM12.4676 1.98015C12.4438 2.01021 12.4208 2.03109 12.3974 2.04319C12.3745 2.05614 12.3507 2.05948 12.3269 2.05614L12.0814 2.00979L12.0497 2.17888L12.4175 2.24735C12.4475 2.25319 12.4772 2.25486 12.5047 2.25152C12.534 2.24944 12.5611 2.24109 12.5857 2.22814C12.612 2.21771 12.64 2.196 12.6709 2.16427C12.7005 2.13212 12.7327 2.0887 12.7699 2.0361L12.4676 1.98015ZM11.0761 2.09121C11.0502 2.12168 11.0243 2.14339 10.9993 2.15592C10.9734 2.16844 10.9475 2.1722 10.9216 2.16719L10.7575 2.13588L10.7258 2.30246L11.0143 2.35715C11.0456 2.36299 11.0786 2.36425 11.1082 2.36174C11.1387 2.35882 11.1683 2.3513 11.1967 2.3417C11.2222 2.33126 11.251 2.31039 11.2836 2.27824C11.3161 2.24651 11.3504 2.20351 11.3888 2.14924L11.0761 2.09121ZM10.9304 1.69375L10.9788 1.84655C10.9926 1.89373 11.0185 1.93214 11.0544 1.96137C11.0903 1.98976 11.1362 2.00854 11.1921 2.01898L11.4598 2.06908L11.4911 1.89999L11.3345 1.87077C11.312 1.86701 11.2957 1.85991 11.2819 1.85031C11.2685 1.84113 11.2594 1.82944 11.2527 1.81399L11.2326 1.74928L10.9304 1.69375ZM12.02 1.5301L12.4325 1.60775L12.4187 1.68457C12.4171 1.69542 12.41 1.7021 12.3983 1.70544C12.3849 1.70836 12.3686 1.70878 12.3469 1.70461L11.9992 1.64031L12.02 1.5301ZM12.0668 1.2796L12.4797 1.35642L12.4609 1.45703L12.0468 1.3798L12.0668 1.2796ZM11.0076 0.909284L10.9771 1.07712L11.7779 1.22658L11.7591 1.32719L10.9028 1.16521L10.8749 1.31383L11.7315 1.47666L11.7111 1.58646L10.9099 1.43699L10.879 1.60441L11.6806 1.75471L11.5817 2.2891C11.5787 2.30121 11.5733 2.30914 11.5612 2.31289C11.5504 2.31623 11.5366 2.31665 11.517 2.31289L11.4059 2.29244L11.3754 2.45985L11.5549 2.49409C11.6464 2.50995 11.7182 2.5087 11.7691 2.49033C11.8217 2.47071 11.8522 2.43355 11.8626 2.37719L11.9683 1.80689L12.4162 1.89081C12.5874 1.92296 12.6818 1.89081 12.6997 1.79646L12.7235 1.66202L12.9014 1.69459L12.9289 1.54513L12.7523 1.51173L12.8012 1.24328L12.0964 1.11302L12.1152 1.01115L11.8276 0.957713L11.8088 1.05875L11.0076 0.909284ZM11.7503 0.56193L11.7286 0.679663L10.6594 0.480101L10.3693 2.0482C10.3668 2.05948 10.3609 2.06616 10.3501 2.06908C10.3392 2.07284 10.3242 2.07242 10.3058 2.0695L10.2186 2.05363L10.1831 2.23816L10.3292 2.26488C10.4256 2.28325 10.502 2.27824 10.5571 2.25069C10.6127 2.22397 10.6461 2.17387 10.6607 2.10248L10.9162 0.719742L13.0316 1.11302L13.0659 0.929324L12.0622 0.742287L12.0839 0.624136L11.7503 0.56193ZM14.831 3.20967L14.7137 3.68728C14.6999 3.73738 14.7041 3.78456 14.7233 3.82672C14.7421 3.86931 14.7772 3.90688 14.8277 3.94028L15.0068 4.06094L15.1241 3.88643L15.046 3.83507C15.0318 3.82464 15.0231 3.81211 15.0176 3.79708C15.013 3.78163 15.013 3.76326 15.0197 3.74072L15.102 3.39003L14.831 3.20967ZM13.9797 2.64271L13.7171 2.87526C13.6954 2.88903 13.6762 2.89822 13.6616 2.90072C13.6458 2.90448 13.6336 2.90198 13.6236 2.89655L13.5017 2.81472L13.3894 2.98172L13.5957 3.12033C13.6487 3.15373 13.6988 3.17168 13.7476 3.17293C13.7956 3.17251 13.8416 3.1554 13.8841 3.12116L14.2436 2.81764L13.9797 2.64271ZM15.3763 2.69323L14.5375 2.13337L14.7509 1.81399L15.6384 2.40641L15.4593 2.67361C15.4477 2.69114 15.4351 2.702 15.4201 2.70409C15.4076 2.70743 15.3925 2.70283 15.3763 2.69323ZM14.5943 1.47833L14.1672 2.11751L14.7008 2.47321L14.5759 2.66108L13.9226 2.22606L13.8061 2.40015L14.4586 2.83601L14.0324 3.47478L14.3029 3.65555L14.73 3.01595L15.3946 3.45975L15.5107 3.28524L14.8465 2.84186L14.9713 2.65399L15.3925 2.93538C15.5165 3.01721 15.6101 3.01261 15.6718 2.91951L16.0058 2.42019L14.5943 1.47833ZM14.2515 1.18525L13.92 1.3869C13.8979 1.399 13.877 1.40693 13.8603 1.4086C13.8424 1.41153 13.8269 1.40777 13.8127 1.39775L13.7096 1.32845L13.5877 1.51131L13.7485 1.61819L12.9778 2.77172L13.2291 2.93872L14.1284 1.5923L14.5212 1.3656L14.2515 1.18525Z" fill="white"/>
</g>
<defs>
<clipPath id="clip0">
<rect width="20" height="20" fill="white"/>
</clipPath>
</defs>
</svg>
