<svg width="37" height="27" viewBox="0 0 37 27" fill="none" xmlns="http://www.w3.org/2000/svg">
<path d="M34.4628 7.92244e-10H2.52823C1.85688 0.00237228 1.21383 0.270728 0.739953 0.746287C0.266074 1.22185 -4.19127e-06 1.86584 0 2.5372V23.5161C-4.19127e-06 24.1875 0.266074 24.8315 0.739953 25.307C1.21383 25.7826 1.85688 26.0509 2.52823 26.0533H34.4628C35.1357 26.0533 35.7811 25.786 36.2569 25.3102C36.7327 24.8344 37 24.189 37 23.5161V2.51926C36.9953 1.84947 36.7259 1.20872 36.2506 0.73678C35.7753 0.264834 35.1326 -1.67261e-05 34.4628 7.92244e-10ZM34.8304 23.534C34.8304 23.6315 34.7917 23.725 34.7227 23.794C34.6538 23.8629 34.5603 23.9016 34.4628 23.9016H2.52823C2.48037 23.9016 2.43299 23.8921 2.38889 23.8735C2.34479 23.8549 2.30485 23.8277 2.27143 23.7934C2.23801 23.7592 2.21178 23.7186 2.1943 23.674C2.17681 23.6295 2.16842 23.5819 2.16961 23.534V2.51926C2.16958 2.42331 2.20708 2.33115 2.27409 2.26247C2.34109 2.19378 2.4323 2.15403 2.52823 2.15169H34.4628C34.5603 2.15169 34.6538 2.19041 34.7227 2.25935C34.7917 2.32828 34.8304 2.42177 34.8304 2.51926V23.534Z" fill="#4F4F4F"/>
<path d="M30.3298 4.79644C30.229 4.65218 30.0948 4.53438 29.9387 4.45303C29.7827 4.37169 29.6093 4.32922 29.4333 4.32922C29.2572 4.32922 29.0838 4.37169 28.9278 4.45303C28.7717 4.53438 28.6375 4.65218 28.5367 4.79644C28.5367 4.79644 27.9629 5.63022 27.4071 6.58951C26.3043 8.49913 26.1788 9.27912 26.1788 9.76325C26.2226 10.598 26.5851 11.3841 27.1914 11.9595C27.7978 12.5349 28.6018 12.8556 29.4377 12.8556C30.2736 12.8556 31.0777 12.5349 31.684 11.9595C32.2904 11.3841 32.6528 10.598 32.6966 9.76325C32.6966 9.31498 32.5622 8.49913 31.4594 6.58951C30.9036 5.63022 30.3477 4.83231 30.3298 4.79644ZM29.4333 10.8481C29.1518 10.8387 28.885 10.7204 28.6893 10.5179C28.4935 10.3155 28.3842 10.0449 28.3843 9.76325C28.6177 8.93278 28.984 8.14559 29.4691 7.43226C29.9542 8.14559 30.3206 8.93278 30.5539 9.76325C30.554 9.90878 30.5248 10.0528 30.4681 10.1868C30.4113 10.3208 30.3282 10.4421 30.2236 10.5433C30.1191 10.6445 29.9952 10.7236 29.8594 10.776C29.7236 10.8284 29.5787 10.8529 29.4333 10.8481Z" fill="#4F4F4F"/>
<path d="M12.5515 9.39572C12.9119 8.86703 13.1055 8.24247 13.1074 7.60265C13.0636 6.7679 12.7011 5.98177 12.0948 5.40639C11.4884 4.83101 10.6844 4.51025 9.84847 4.51025C9.01257 4.51025 8.20853 4.83101 7.60217 5.40639C6.99581 5.98177 6.63336 6.7679 6.58956 7.60265C6.58881 8.24153 6.77928 8.86601 7.13645 9.39572C6.3165 9.87748 5.63687 10.5654 5.16504 11.3911C4.69321 12.2168 4.44561 13.1515 4.44684 14.1025V16.2811C4.44921 16.5696 4.56549 16.8455 4.77036 17.0487C4.97522 17.2519 5.25208 17.3659 5.54062 17.3659H14.228C14.5157 17.3659 14.7917 17.2516 14.9951 17.0482C15.1986 16.8447 15.3128 16.5688 15.3128 16.2811V14.1025C15.3086 13.1441 15.051 12.2039 14.566 11.3773C14.081 10.5506 13.386 9.86701 12.5515 9.39572ZM8.75918 7.60265C8.75918 7.3881 8.8228 7.17836 8.942 6.99997C9.0612 6.82157 9.23062 6.68253 9.42885 6.60042C9.62707 6.51831 9.84519 6.49683 10.0556 6.53869C10.2661 6.58055 10.4593 6.68386 10.6111 6.83557C10.7628 6.98729 10.8661 7.18058 10.9079 7.39102C10.9498 7.60145 10.9283 7.81957 10.8462 8.01779C10.7641 8.21601 10.6251 8.38543 10.4467 8.50463C10.2683 8.62383 10.0585 8.68746 9.84398 8.68746C9.7 8.68748 9.55746 8.65883 9.42466 8.6032C9.29187 8.54756 9.17147 8.46606 9.0705 8.36341C8.96953 8.26077 8.89 8.13906 8.83655 8.00537C8.7831 7.87168 8.7568 7.72868 8.75918 7.58472V7.60265ZM13.1432 15.1873H6.58956V14.1025C6.63336 13.2678 6.99581 12.4817 7.60217 11.9063C8.20853 11.3309 9.01257 11.0101 9.84847 11.0101C10.6844 11.0101 11.4884 11.3309 12.0948 11.9063C12.7011 12.4817 13.0636 13.2678 13.1074 14.1025L13.1432 15.1873Z" fill="#4F4F4F"/>
<path d="M14.1922 19.5355H5.50476C5.21705 19.5355 4.94113 19.6498 4.73768 19.8533C4.53424 20.0567 4.41995 20.3326 4.41995 20.6203C4.41995 20.908 4.53424 21.184 4.73768 21.3874C4.94113 21.5908 5.21705 21.7051 5.50476 21.7051H14.1922C14.4799 21.7051 14.7558 21.5908 14.9593 21.3874C15.1627 21.184 15.277 20.908 15.277 20.6203C15.277 20.3326 15.1627 20.0567 14.9593 19.8533C14.7558 19.6498 14.4799 19.5355 14.1922 19.5355Z" fill="#4F4F4F"/>
<path d="M18.5224 8.66949H22.8706C23.1583 8.66949 23.4343 8.5552 23.6377 8.35176C23.8411 8.14832 23.9554 7.87239 23.9554 7.58468C23.9554 7.29698 23.8411 7.02105 23.6377 6.81761C23.4343 6.61417 23.1583 6.49988 22.8706 6.49988H18.5224C18.2347 6.49988 17.9588 6.61417 17.7554 6.81761C17.5519 7.02105 17.4376 7.29698 17.4376 7.58468C17.4376 7.87239 17.5519 8.14832 17.7554 8.35176C17.9588 8.5552 18.2347 8.66949 18.5224 8.66949Z" fill="#4F4F4F"/>
<path d="M18.5224 13.0176H22.8706C23.1583 13.0176 23.4343 12.9033 23.6377 12.6999C23.8411 12.4965 23.9554 12.2205 23.9554 11.9328C23.9554 11.6451 23.8411 11.3692 23.6377 11.1658C23.4343 10.9623 23.1583 10.848 22.8706 10.848H18.5224C18.2347 10.848 17.9588 10.9623 17.7554 11.1658C17.5519 11.3692 17.4376 11.6451 17.4376 11.9328C17.4376 12.2205 17.5519 12.4965 17.7554 12.6999C17.9588 12.9033 18.2347 13.0176 18.5224 13.0176Z" fill="#4F4F4F"/>
<path d="M31.567 15.1872H18.5224C18.2506 15.2119 17.9978 15.3373 17.8137 15.5389C17.6297 15.7405 17.5276 16.0035 17.5276 16.2765C17.5276 16.5495 17.6297 16.8126 17.8137 17.0141C17.9978 17.2157 18.2506 17.3411 18.5224 17.3658H31.567C31.7184 17.3795 31.8709 17.3616 32.015 17.3131C32.159 17.2646 32.2913 17.1866 32.4036 17.0841C32.5158 16.9817 32.6054 16.8569 32.6667 16.7178C32.728 16.5788 32.7597 16.4285 32.7597 16.2765C32.7597 16.1245 32.728 15.9742 32.6667 15.8352C32.6054 15.6961 32.5158 15.5714 32.4036 15.4689C32.2913 15.3664 32.159 15.2884 32.015 15.2399C31.8709 15.1914 31.7184 15.1735 31.567 15.1872Z" fill="#4F4F4F"/>
<path d="M31.567 19.5355H18.5224C18.2347 19.5355 17.9588 19.6498 17.7554 19.8533C17.5519 20.0567 17.4376 20.3326 17.4376 20.6203C17.4376 20.908 17.5519 21.184 17.7554 21.3874C17.9588 21.5908 18.2347 21.7051 18.5224 21.7051H31.567C31.8547 21.7051 32.1306 21.5908 32.3341 21.3874C32.5375 21.184 32.6518 20.908 32.6518 20.6203C32.6518 20.3326 32.5375 20.0567 32.3341 19.8533C32.1306 19.6498 31.8547 19.5355 31.567 19.5355Z" fill="#4F4F4F"/>
</svg>
